<?xml version="1.0" standalone="no"?>
<!DOCTYPE svg PUBLIC "-//W3C//DTD SVG 20010904//EN"
 "http://www.w3.org/TR/2001/REC-SVG-20010904/DTD/svg10.dtd">
<svg version="1.0" xmlns="http://www.w3.org/2000/svg"
 width="626.000000pt" height="626.000000pt" viewBox="0 0 626.000000 626.000000"
 preserveAspectRatio="xMidYMid meet">

<g transform="translate(0.000000,626.000000) scale(0.100000,-0.100000)"
fill="#000000" stroke="none">
<path d="M311 6222 c19 -20 43 -54 54 -75 11 -20 26 -37 33 -37 22 0 156 42
170 53 7 5 11 29 10 56 l-1 46 -4 -42 c-2 -23 -9 -46 -16 -51 -14 -11 -135
-52 -154 -52 -7 0 -21 17 -32 39 -24 46 -69 101 -83 101 -6 0 5 -17 23 -38z"/>
<path d="M350 6251 c8 -5 25 -12 38 -15 17 -6 22 -3 22 11 0 12 -3 14 -8 6 -5
-8 -13 -9 -22 -3 -8 6 -22 10 -30 10 -13 -1 -13 -2 0 -9z"/>
<path d="M2242 6178 c-96 -113 -235 -246 -304 -292 -61 -39 -74 -70 -43 -96 8
-7 15 -27 15 -45 0 -36 21 -60 45 -51 10 4 19 -3 27 -19 6 -14 15 -25 20 -25
5 0 25 -16 44 -36 31 -33 37 -36 72 -30 33 5 47 1 86 -25 37 -25 52 -30 74
-24 42 12 104 12 140 1 30 -9 35 -8 50 12 9 12 32 25 50 28 36 7 43 14 47 51
3 29 23 45 47 37 10 -3 27 0 39 6 18 10 21 18 17 60 -3 27 -13 61 -23 77 -11
15 -18 40 -16 54 1 14 -14 72 -33 130 -19 57 -37 127 -41 154 -11 93 -16 115
-24 115 -15 0 21 -193 50 -272 31 -86 37 -153 15 -183 -13 -18 -14 -17 -21 13
-5 25 -12 32 -31 32 -17 0 -24 6 -24 20 0 16 -7 20 -36 20 -34 0 -35 1 -29 29
3 17 2 32 -4 36 -19 11 -12 46 15 78 23 28 26 38 21 87 -2 30 -10 74 -17 98
-20 64 -44 58 -129 -35 -39 -42 -71 -80 -71 -85 0 -4 -13 -29 -30 -55 -26 -40
-30 -57 -30 -114 0 -66 -15 -99 -39 -85 -14 9 -26 -15 -22 -47 1 -16 -4 -36
-12 -45 -8 -9 -18 -27 -21 -40 -6 -17 -12 -21 -31 -16 -14 3 -34 -1 -51 -12
-26 -18 -27 -18 -42 4 -8 12 -25 22 -37 22 -18 0 -24 7 -29 39 -3 22 -13 46
-21 55 -22 22 -15 38 30 65 79 48 137 100 267 242 102 113 132 149 120 149 -5
0 -41 -37 -80 -82z m188 55 c0 -5 5 -50 10 -102 7 -79 6 -98 -7 -117 -13 -20
-13 -29 -3 -54 7 -16 10 -39 7 -50 -3 -11 -1 -22 3 -25 4 -3 6 -14 3 -25 -3
-11 -2 -28 3 -37 6 -14 9 -11 14 17 6 34 7 33 29 -40 13 -41 27 -79 33 -85 11
-11 3 27 -19 89 -7 21 -13 48 -13 60 1 19 2 18 16 -6 8 -16 23 -28 34 -28 11
0 20 -6 20 -14 0 -7 6 -19 14 -25 11 -10 18 -8 34 9 l20 22 11 -34 c6 -18 12
-49 13 -68 3 -34 2 -35 -39 -40 -51 -7 -53 -10 -62 -52 -6 -27 -12 -34 -36
-36 -18 -2 -39 -14 -52 -29 -18 -23 -24 -25 -37 -13 -10 8 -31 11 -56 7 l-40
-5 0 38 c0 29 -6 43 -24 57 -19 15 -22 23 -14 37 5 10 7 33 4 51 -6 28 -1 42
27 82 56 78 86 204 87 356 0 38 4 67 10 67 6 0 10 -3 10 -7z m39 -122 c1 -89
-5 -73 -12 29 -4 52 -3 75 3 60 4 -14 8 -54 9 -89z m-107 37 c-16 -24 -30 -46
-31 -50 -8 -31 -45 -98 -65 -118 -30 -27 -36 -52 -6 -25 19 17 19 16 14 -21
-5 -44 4 -29 28 46 8 26 19 44 27 42 8 -2 10 4 6 18 -6 19 37 110 52 110 11 0
-7 -165 -24 -220 -17 -50 -20 -55 -45 -52 -31 4 -68 -28 -68 -57 0 -42 -70
-71 -84 -35 -11 28 -6 44 13 44 30 0 40 22 44 97 3 64 8 78 48 140 52 81 112
149 117 134 2 -5 -10 -30 -26 -53z m-32 -290 c0 -6 -11 -26 -25 -44 -17 -22
-26 -46 -26 -71 0 -123 1 -119 -39 -113 -8 1 -22 8 -31 16 -8 8 -28 14 -43 14
-36 0 -50 35 -28 73 14 23 23 27 58 27 46 0 59 10 69 55 8 31 30 55 52 55 7 0
13 -5 13 -12z m-214 -193 c10 -8 29 -15 42 -15 13 0 36 -9 51 -21 24 -18 34
-19 65 -11 20 6 37 7 37 4 8 -42 4 -54 -22 -67 -32 -17 -51 -12 -85 21 -18 19
-34 24 -77 24 -48 0 -55 3 -76 31 -19 25 -21 33 -10 40 21 13 53 11 75 -6z"/>
<path d="M2396 5769 c-40 -54 -62 -102 -24 -55 13 16 33 41 46 55 l23 26 -6
-85 c-4 -52 -2 -81 3 -75 6 6 12 45 14 88 7 102 -6 113 -56 46z"/>
<path d="M2331 5993 c1 -10 5 -29 9 -43 7 -21 8 -19 9 18 1 23 -3 42 -9 42 -5
0 -10 -8 -9 -17z"/>
<path d="M2895 6250 c-3 -5 -12 -7 -20 -3 -8 3 -15 0 -15 -6 0 -6 -9 -11 -20
-11 -19 0 -20 -2 -7 -27 13 -25 12 -31 -4 -58 -11 -16 -19 -44 -19 -62 0 -31
141 -602 162 -656 24 -63 105 -99 171 -78 42 14 71 45 86 92 10 32 6 58 -40
235 -134 521 -124 495 -190 523 -29 12 -39 22 -39 39 0 16 -6 22 -22 21 -17 0
-19 -2 -8 -7 31 -14 20 -37 -25 -53 -35 -13 -45 -14 -49 -3 -5 13 8 27 37 37
9 4 17 11 17 17 0 13 -7 13 -15 0z m94 -128 c33 -65 63 -167 86 -297 19 -103
24 -120 30 -113 7 7 -21 157 -49 263 -14 52 -39 121 -56 154 -16 33 -30 63
-30 66 0 12 61 -27 74 -48 8 -12 32 -92 55 -177 22 -85 58 -225 80 -311 23
-86 41 -169 41 -185 0 -16 -10 -45 -22 -64 l-23 -35 -2 35 c-5 72 -26 181 -36
187 -6 4 -8 -3 -3 -18 3 -13 11 -56 16 -95 13 -87 3 -124 -34 -124 -37 0 -72
47 -100 134 -4 10 -9 16 -12 13 -9 -9 14 -72 41 -112 30 -44 13 -46 -29 -2
-30 30 -38 56 -114 353 -45 177 -82 326 -82 332 0 6 5 23 12 39 6 15 10 32 9
36 -1 5 2 6 7 3 5 -3 12 -38 16 -79 9 -105 69 -347 85 -347 4 0 -2 36 -15 79
-34 119 -53 218 -55 294 -1 37 0 68 2 70 56 32 69 26 108 -51z"/>
<path d="M3431 6238 c12 -13 37 -47 56 -75 18 -29 39 -53 47 -53 15 0 134 38
159 51 13 7 17 21 15 57 l-2 47 -3 -47 -4 -47 -77 -25 c-42 -14 -83 -26 -89
-26 -7 0 -20 15 -29 33 -21 40 -75 107 -86 107 -5 0 1 -10 13 -22z"/>
<path d="M3493 6244 c15 -8 32 -12 37 -9 20 12 9 20 -28 22 l-37 2 28 -15z"/>
<path d="M5344 6147 c-109 -124 -184 -196 -260 -247 -27 -19 -55 -40 -61 -46
-17 -17 -16 -49 2 -64 8 -7 15 -27 15 -45 0 -36 21 -60 45 -51 10 4 19 -3 27
-19 6 -14 16 -25 22 -25 6 0 23 -15 38 -34 25 -32 31 -34 82 -33 48 1 60 -3
85 -27 24 -23 35 -27 58 -22 49 12 117 13 150 3 29 -10 35 -8 57 16 14 16 36
27 50 27 26 0 47 25 39 47 -6 16 40 45 59 38 23 -9 48 22 48 58 0 18 -9 52
-20 76 -11 24 -20 54 -20 67 0 13 -15 70 -34 126 -19 57 -37 128 -41 158 -9
81 -16 110 -24 110 -15 0 21 -196 47 -260 19 -46 26 -83 27 -129 0 -66 -13
-88 -30 -49 -6 13 -20 24 -32 26 -15 2 -23 10 -23 23 0 15 -7 19 -36 19 -33 0
-36 2 -30 23 3 12 0 36 -6 54 -10 28 -9 34 17 64 25 31 27 38 21 94 -9 96 -23
135 -49 135 -28 0 -92 -62 -150 -143 -65 -92 -77 -120 -77 -182 0 -59 -14
-100 -31 -89 -20 12 -38 -16 -32 -52 3 -21 2 -34 -5 -34 -6 0 -16 -16 -22 -35
-10 -30 -15 -34 -35 -29 -14 3 -34 -1 -51 -12 -26 -18 -27 -18 -42 4 -8 12
-25 22 -38 22 -13 0 -24 6 -25 13 -2 34 -11 63 -24 78 -23 24 -10 43 58 88 73
47 102 74 224 206 114 125 147 165 136 165 -5 0 -54 -51 -109 -113z m221 40
c13 -111 12 -152 -2 -173 -10 -16 -11 -28 -3 -48 5 -15 10 -53 10 -84 0 -50
-5 -63 -38 -106 -64 -84 -65 -86 -54 -86 6 0 24 19 41 43 33 49 64 79 57 56
-10 -31 -16 -163 -7 -154 8 9 20 132 21 210 0 44 15 15 36 -67 9 -38 20 -68
25 -68 10 0 4 32 -18 94 -7 21 -13 48 -13 60 0 19 1 19 13 -4 7 -14 23 -26 35
-28 12 -2 22 -7 22 -11 0 -4 6 -15 13 -25 13 -17 14 -17 30 -1 23 22 32 14 46
-39 14 -59 7 -76 -34 -76 -36 0 -62 -23 -67 -60 -2 -19 -10 -26 -33 -28 -17
-2 -39 -14 -51 -29 -19 -22 -24 -24 -44 -13 -13 7 -38 10 -56 7 -21 -4 -34 -1
-37 6 -3 9 -11 8 -33 -3 -16 -8 -32 -15 -35 -17 -4 -1 -24 11 -44 27 -31 25
-47 30 -91 30 -46 0 -55 3 -73 28 -15 22 -17 32 -9 40 16 16 50 15 74 -3 10
-8 29 -15 42 -15 13 0 36 -10 52 -21 25 -19 33 -20 61 -10 35 12 54 0 44 -26
-2 -7 0 -13 5 -13 16 0 12 33 -7 60 -11 16 -18 45 -19 80 0 45 5 62 27 94 56
77 89 213 89 367 0 81 16 85 25 6z m-47 -49 c2 -71 -10 -164 -29 -225 -9 -27
-16 -33 -40 -33 -32 0 -73 -34 -66 -55 6 -15 -28 -55 -48 -55 -29 0 -45 13
-45 36 0 17 6 24 19 24 30 0 42 25 43 92 0 35 5 72 11 83 33 66 129 194 153
205 0 0 1 -32 2 -72z m81 -22 c1 -80 -5 -68 -12 24 -4 48 -3 68 3 55 5 -11 9
-47 9 -79z m-139 -258 c0 -6 -11 -26 -25 -44 -17 -23 -26 -46 -26 -71 1 -21 0
-47 -1 -58 0 -11 1 -27 3 -35 6 -21 -54 -26 -71 -6 -7 9 -25 16 -40 16 -41 0
-51 18 -33 63 14 35 18 37 58 37 47 0 60 10 70 55 8 31 30 55 52 55 7 0 13 -5
13 -12z"/>
<path d="M5482 6132 c-12 -16 -29 -49 -39 -74 -10 -26 -31 -60 -46 -78 -16
-17 -27 -34 -24 -36 2 -3 10 2 16 10 7 8 19 12 27 9 9 -3 14 2 14 14 0 11 7
28 15 39 14 18 14 18 16 -11 0 -16 5 -41 10 -55 6 -18 7 -10 4 29 -2 29 -9 58
-14 65 -7 8 0 27 21 59 33 52 33 76 0 29z"/>
<path d="M5400 5923 c0 -22 2 -25 10 -13 13 20 13 40 0 40 -5 0 -10 -12 -10
-27z"/>
<path d="M6025 6250 c-4 -6 -10 -8 -15 -5 -4 3 -20 -1 -34 -9 -22 -11 -24 -15
-12 -25 17 -14 14 -42 -8 -73 -9 -12 -16 -37 -16 -54 0 -42 146 -618 168 -663
22 -45 59 -71 110 -78 50 -7 54 6 9 27 -30 14 -65 67 -82 124 -3 10 -8 16 -11
13 -9 -9 14 -72 41 -112 28 -40 25 -42 -16 -18 -37 22 -44 42 -125 358 -92
356 -92 356 -67 395 l20 32 7 -79 c6 -79 58 -311 76 -342 16 -27 11 -2 -25
144 -33 129 -49 274 -32 291 3 3 20 7 38 7 30 2 36 -3 61 -48 34 -61 49 -110
83 -263 14 -64 28 -128 31 -141 3 -13 7 -21 10 -18 16 16 -65 336 -106 418
-16 34 -30 62 -30 64 0 2 9 1 21 -2 24 -7 71 -63 75 -89 7 -49 59 -236 62
-222 2 8 -11 71 -28 139 -34 133 -50 160 -107 181 -24 9 -33 18 -33 35 0 16
-6 23 -17 22 -11 0 -13 -3 -5 -6 6 -2 12 -12 12 -21 0 -22 -86 -56 -94 -37 -5
14 12 35 30 35 6 0 17 7 24 15 8 9 9 15 2 15 -6 0 -14 -5 -17 -10z"/>
<path d="M2263 6153 c-64 -64 -95 -101 -176 -206 -75 -97 -97 -138 -54 -98
l26 23 -6 -22 c-4 -16 -3 -21 5 -16 7 4 12 22 12 39 0 19 10 44 25 62 l24 30
1 -44 c0 -24 3 -41 7 -37 4 3 6 26 4 50 -2 42 3 50 73 134 41 49 85 96 98 104
13 9 20 19 16 23 -4 4 -28 -15 -55 -42z"/>
<path d="M5395 6158 c-49 -51 -111 -123 -145 -167 -88 -116 -110 -147 -110
-155 0 -5 9 -1 20 9 19 18 20 17 20 -6 0 -19 2 -21 10 -9 5 8 10 26 10 38 0
26 29 82 42 82 4 0 8 -16 8 -37 0 -20 3 -33 7 -29 4 4 6 26 4 49 -2 41 20 85
54 109 5 4 7 8 4 8 -4 0 24 32 62 72 38 39 69 73 69 75 0 11 -21 -3 -55 -39z"/>
<path d="M1200 6143 c0 -4 19 -8 43 -9 23 0 74 -6 112 -12 39 -6 116 -12 173
-12 97 0 104 -1 129 -26 21 -21 24 -32 20 -61 -7 -43 -26 -59 -99 -80 -32 -9
-58 -20 -58 -24 0 -16 126 31 148 56 62 72 -8 163 -115 150 -27 -4 -95 -1
-153 5 -183 21 -200 22 -200 13z"/>
<path d="M4295 6134 c-73 -40 -105 -89 -105 -161 0 -91 78 -163 176 -163 35 0
66 9 113 34 64 33 241 96 268 96 8 0 28 13 44 29 73 74 4 171 -111 156 -25 -3
-92 -1 -150 5 -202 21 -203 21 -235 4z m220 -14 c50 -6 126 -10 169 -9 75 1
81 0 103 -25 44 -51 19 -119 -50 -136 -84 -22 -144 -43 -238 -86 -144 -66
-214 -57 -276 35 -71 106 29 251 162 236 22 -3 81 -10 130 -15z"/>
<path d="M4303 6063 c-66 -33 -79 -109 -27 -158 85 -79 233 6 190 110 -25 59
-97 81 -163 48z m102 -7 c96 -41 60 -166 -49 -166 -125 0 -138 133 -16 173 24
8 29 8 65 -7z"/>
<path d="M4405 5954 c-14 -11 -34 -14 -62 -11 -24 2 -40 1 -37 -4 13 -21 124
-1 124 23 0 11 -1 10 -25 -8z"/>
<path d="M1143 6121 c-108 -67 -112 -214 -7 -281 65 -41 130 -41 206 -2 30 16
76 37 103 47 28 10 55 23 60 28 17 16 -34 -3 -139 -50 -85 -39 -105 -45 -148
-41 -80 8 -136 63 -145 141 -7 58 23 113 80 150 47 31 38 37 -10 8z"/>
<path d="M812 6043 c-15 -57 -27 -61 -37 -12 -11 47 -18 27 -21 -58 -6 -133
-8 -139 -62 -159 -26 -10 -64 -28 -84 -41 -21 -13 -39 -23 -42 -23 -2 0 -11
16 -21 36 -21 44 -43 54 -64 28 -9 -10 -36 -28 -61 -39 -69 -30 -98 -55 -121
-103 -25 -50 -22 -115 5 -157 17 -26 93 -71 114 -67 6 2 12 -3 12 -10 0 -9 3
-9 10 2 7 11 12 12 20 4 14 -14 83 -1 116 21 21 14 64 10 64 -5 0 -5 9 -6 20
-3 11 3 20 1 20 -4 0 -13 110 -4 141 13 33 17 78 88 86 137 7 46 -10 94 -48
137 -17 19 -37 50 -46 69 -14 32 -13 37 17 98 18 36 46 80 62 99 39 44 32 52
-13 14 -19 -16 -37 -29 -41 -30 -4 0 -8 24 -10 53 l-3 52 -13 -52z m24 -79
c18 7 18 4 -7 -38 -23 -39 -34 -47 -24 -17 3 11 1 22 -4 25 -6 4 -6 18 2 39
11 29 12 30 15 9 2 -16 8 -22 18 -18z m-50 -83 c-6 -36 12 -80 56 -135 55 -70
66 -113 43 -173 -10 -26 -34 -63 -52 -82 -33 -33 -35 -34 -101 -28 -37 3 -81
11 -99 17 l-31 11 21 36 c32 56 29 122 -11 176 l-31 44 52 26 c29 14 62 28 75
32 33 9 49 42 56 110 3 33 6 65 7 70 1 6 5 -10 10 -35 5 -25 8 -56 5 -69z
m-256 -90 c6 -16 25 -42 42 -57 42 -40 58 -76 58 -126 -1 -53 -26 -104 -63
-132 -23 -17 -41 -21 -90 -19 -79 3 -121 18 -150 53 -50 59 -42 157 16 206 17
15 55 37 82 50 28 12 57 29 64 38 19 23 27 20 41 -13z"/>
<path d="M810 5939 c0 -5 5 -7 10 -4 6 3 10 8 10 11 0 2 -4 4 -10 4 -5 0 -10
-5 -10 -11z"/>
<path d="M668 5752 c-16 -9 -28 -23 -28 -31 0 -13 2 -12 13 1 6 8 23 22 37 32
32 21 13 20 -22 -2z"/>
<path d="M812 5681 c19 -43 20 -55 10 -89 -7 -21 -23 -51 -38 -67 -14 -15 -23
-29 -21 -31 10 -11 67 69 73 102 7 40 -9 105 -31 124 -10 8 -7 -4 7 -39z"/>
<path d="M433 5732 c-72 -47 -104 -107 -89 -166 8 -33 44 -66 70 -66 16 1 13
4 -11 15 -40 17 -58 52 -49 98 9 46 36 79 91 111 42 25 55 37 38 35 -5 0 -27
-12 -50 -27z"/>
<path d="M528 5708 c62 -67 54 -185 -13 -199 -30 -7 -30 -7 -3 -8 67 -3 92
109 41 187 -15 23 -32 42 -37 42 -5 0 0 -10 12 -22z"/>
<path d="M437 5668 c-41 -63 -36 -109 13 -122 24 -6 24 -6 -2 9 -35 20 -36 45
-2 102 33 57 26 65 -9 11z"/>
<path d="M3942 6043 c-15 -57 -27 -61 -37 -12 -11 48 -17 28 -21 -68 -2 -48
-6 -97 -9 -108 -3 -13 -33 -33 -90 -60 -91 -43 -100 -43 -118 8 -11 29 -35 31
-67 4 -16 -14 -40 -29 -52 -33 -78 -24 -138 -100 -138 -175 0 -64 55 -139 101
-139 11 0 19 -4 19 -10 0 -5 7 -7 15 -4 9 4 15 0 15 -7 0 -11 3 -11 10 1 8 12
11 13 19 1 5 -8 11 -9 15 -3 3 6 15 8 26 5 11 -3 37 4 59 15 37 20 81 20 81 1
0 -5 7 -6 16 -2 9 3 20 0 25 -8 6 -11 9 -11 9 -1 0 9 5 10 18 3 22 -12 93 1
127 23 30 20 75 108 75 148 0 40 -17 77 -62 136 -26 34 -41 64 -41 82 0 25 45
109 101 190 l17 25 -35 -27 c-19 -15 -34 -32 -32 -38 2 -8 -3 -8 -18 0 -17 9
-20 8 -20 -9 0 -11 -3 -28 -7 -38 -4 -13 0 -11 16 7 l22 25 -22 -45 c-12 -25
-22 -46 -24 -48 -1 -1 -2 19 -3 45 0 27 6 58 14 71 9 13 14 39 12 60 l-3 37
-13 -52z m-25 -163 c-5 -43 7 -73 50 -124 48 -57 66 -102 59 -145 -14 -87 -71
-151 -136 -151 -49 0 -138 19 -145 31 -3 4 2 23 11 40 26 51 21 122 -11 169
-34 49 -27 61 57 91 65 24 88 48 88 94 0 16 3 48 7 70 l7 40 8 -40 c5 -22 7
-56 5 -75z m-254 -92 c9 -18 35 -54 58 -80 34 -39 41 -53 41 -90 -1 -53 -22
-105 -57 -138 -24 -22 -34 -25 -93 -22 -116 4 -159 28 -183 99 -26 80 19 160
116 204 34 15 67 35 74 43 19 23 25 20 44 -16z"/>
<path d="M3800 5755 c-14 -8 -20 -14 -15 -14 6 0 21 6 35 14 14 8 21 14 15 14
-5 0 -21 -6 -35 -14z"/>
<path d="M3942 5681 c19 -43 20 -55 10 -89 -7 -21 -23 -51 -38 -67 -14 -15
-23 -29 -21 -31 11 -12 66 69 72 105 7 44 -7 102 -30 121 -9 8 -7 -5 7 -39z"/>
<path d="M3562 5732 c-23 -16 -54 -44 -68 -63 -21 -28 -25 -42 -21 -82 5 -55
19 -73 62 -82 l30 -6 -32 15 c-57 26 -70 88 -30 147 20 30 35 43 103 86 11 6
15 12 9 12 -5 1 -29 -12 -53 -27z"/>
<path d="M3667 5693 c23 -30 28 -46 28 -94 0 -35 -6 -64 -15 -76 -8 -10 -5 -8
8 5 31 33 30 101 -3 159 -14 23 -30 43 -36 43 -5 0 3 -17 18 -37z"/>
<path d="M3565 5663 c-39 -58 -33 -104 15 -117 24 -6 24 -6 -2 9 -18 10 -28
24 -28 38 0 21 5 32 38 86 22 36 4 23 -23 -16z"/>
<path d="M1190 6073 c-28 -10 -69 -56 -75 -84 -21 -94 120 -152 195 -79 32 32
40 82 19 122 -19 34 -95 57 -139 41z m85 -17 c98 -41 60 -166 -52 -166 -36 0
-50 6 -73 29 -29 28 -31 41 -15 92 6 19 68 58 93 59 7 0 28 -6 47 -14z"/>
<path d="M1275 5954 c-14 -11 -34 -14 -64 -11 -27 3 -38 2 -30 -4 29 -18 119
-1 119 23 0 11 -1 10 -25 -8z"/>
<path d="M1 5870 c-1 -14 19 -101 44 -195 25 -93 45 -183 45 -200 0 -16 -10
-46 -22 -65 l-22 -35 -7 70 c-7 70 -27 160 -34 153 -2 -2 3 -46 12 -97 16 -87
16 -95 0 -122 -12 -22 -13 -29 -3 -29 25 0 65 40 81 83 16 43 16 44 -35 243
-59 229 -58 227 -59 194z"/>
<path d="M1443 5811 c-44 -22 -127 -54 -183 -72 -56 -18 -111 -39 -122 -48
-11 -9 -22 -34 -25 -57 -4 -33 -1 -45 20 -70 l25 -29 174 -9 c290 -14 290 -14
331 14 108 73 98 239 -17 291 -63 29 -110 24 -203 -20z m197 7 c64 -33 85 -67
85 -138 0 -71 -21 -104 -87 -140 -45 -24 -49 -24 -130 -12 -46 7 -139 12 -207
12 l-123 0 -30 30 c-25 26 -29 36 -24 63 9 47 29 60 151 100 61 20 144 52 185
71 87 42 120 44 180 14z"/>
<path d="M1590 5750 c0 -5 5 -10 10 -10 6 0 10 5 10 10 0 6 -4 10 -10 10 -5 0
-10 -4 -10 -10z"/>
<path d="M1230 5620 c0 -5 5 -10 11 -10 5 0 7 5 4 10 -3 6 -8 10 -11 10 -2 0
-4 -4 -4 -10z"/>
<path d="M1635 5590 c3 -5 8 -10 11 -10 2 0 4 5 4 10 0 6 -5 10 -11 10 -5 0
-7 -4 -4 -10z"/>
<path d="M4581 5815 c-41 -20 -115 -50 -165 -66 -142 -48 -146 -50 -161 -80
-21 -40 -18 -74 9 -106 24 -28 25 -28 183 -35 87 -4 186 -10 220 -14 52 -5 69
-3 108 16 54 26 96 88 94 141 -1 33 -1 33 -10 -9 -18 -93 -94 -149 -183 -137
-28 3 -126 9 -218 13 -91 4 -168 9 -171 12 -70 85 -43 134 98 175 50 15 128
45 174 67 100 47 136 54 187 38 49 -16 82 -45 102 -90 8 -19 17 -29 19 -22 8
23 -47 90 -91 112 -62 29 -110 26 -195 -15z"/>
<path d="M4720 5750 c0 -5 5 -10 10 -10 6 0 10 5 10 10 0 6 -4 10 -10 10 -5 0
-10 -4 -10 -10z"/>
<path d="M1909 5345 c-24 -13 -65 -34 -90 -45 -90 -41 -91 -131 -2 -241 16
-20 37 -56 47 -80 10 -24 24 -58 31 -76 17 -39 51 -52 70 -26 8 10 15 13 15 7
0 -21 34 -26 47 -8 10 14 15 15 28 4 21 -17 39 -1 54 52 7 24 33 88 59 143 79
171 68 246 -37 261 -25 4 -58 13 -73 20 -41 21 -99 17 -149 -11z m168 -20 c35
-35 36 -37 30 -103 -5 -67 -71 -316 -90 -340 -15 -19 -31 0 -65 83 -17 39 -44
104 -62 145 -42 95 -46 168 -12 202 28 29 75 46 126 47 31 1 45 -6 73 -34z
m88 -9 c62 -26 60 -97 -9 -241 -24 -49 -49 -110 -56 -135 -16 -59 -19 -63 -36
-49 -21 17 -17 49 16 151 34 104 49 223 32 255 -19 35 -1 41 53 19z m-322 -50
c-7 -42 17 -124 67 -232 44 -96 54 -133 40 -154 -8 -13 -12 -12 -28 5 -11 11
-27 41 -35 67 -9 26 -33 73 -54 103 -90 132 -97 191 -25 229 39 21 41 20 35
-18z"/>
<path d="M1911 5257 c-11 -29 1 -97 28 -157 26 -59 27 -40 1 28 -22 59 -26
122 -8 140 9 9 9 12 0 12 -7 0 -16 -10 -21 -23z"/>
<path d="M5050 5352 c-19 -11 -48 -26 -65 -35 -16 -9 -35 -17 -41 -17 -6 0
-23 -12 -38 -26 -44 -45 -28 -132 38 -212 16 -18 42 -67 60 -109 36 -89 55
-106 85 -79 12 11 21 14 21 9 0 -20 34 -25 47 -7 10 14 15 15 28 4 21 -18 42
2 56 54 6 22 33 89 60 148 54 116 63 184 32 223 l-16 20 9 -20 c5 -11 9 -45 9
-75 -1 -45 -10 -75 -52 -165 -28 -60 -54 -124 -58 -142 -8 -41 -33 -51 -41
-16 -4 16 2 55 16 102 13 42 29 99 37 126 14 51 13 145 -1 178 -6 13 -3 17 14
17 12 0 30 -5 41 -10 11 -6 19 -7 19 -2 0 11 -34 22 -66 22 -12 0 -35 7 -50
15 -39 20 -103 19 -144 -3z m156 -26 c29 -29 34 -41 34 -82 0 -27 -11 -89 -25
-139 -14 -49 -32 -117 -41 -150 -21 -78 -31 -91 -55 -70 -9 9 -20 29 -24 43
-3 15 -26 70 -49 122 -49 108 -71 188 -61 222 17 54 71 87 144 88 36 0 49 -6
77 -34z m-233 -60 c-7 -43 17 -123 73 -249 31 -67 43 -108 39 -124 -11 -46
-43 -16 -70 65 -9 29 -32 73 -51 98 -89 117 -98 190 -26 228 39 21 41 20 35
-18z"/>
<path d="M5056 5277 c-25 -18 -23 -85 5 -159 12 -32 24 -56 27 -54 2 3 -5 28
-17 55 -26 62 -28 136 -4 150 10 5 15 12 12 15 -3 3 -14 0 -23 -7z"/>
<path d="M1404 5265 l-60 -65 -34 17 c-19 9 -48 16 -65 16 -16 -1 -46 -1 -65
-1 -118 1 -141 -2 -188 -22 -60 -26 -115 -82 -146 -149 -18 -40 -21 -64 -21
-186 0 -147 14 -214 53 -261 23 -28 75 -54 105 -54 14 0 30 -7 37 -15 7 -8 23
-15 35 -15 13 0 43 -11 66 -25 28 -15 60 -25 86 -25 23 0 45 -5 49 -11 3 -6
20 -9 36 -7 16 3 31 1 34 -4 11 -17 71 -7 116 20 70 41 164 128 198 184 57 92
73 206 46 321 -15 64 -35 92 -72 101 -13 4 -24 11 -24 16 0 18 -64 50 -97 50
-48 0 -43 29 15 82 26 23 51 48 55 55 12 19 -22 43 -61 43 -32 0 -44 -8 -98
-65z m143 29 c2 -7 -12 -22 -33 -34 -66 -41 -92 -111 -58 -158 21 -30 10 -41
-16 -17 -11 10 -42 20 -72 23 -72 7 -102 51 -45 66 21 5 33 16 116 104 26 28
37 33 68 30 20 -2 38 -8 40 -14z m-383 -93 c18 -20 14 -41 -7 -41 -18 0 -83
-57 -75 -65 4 -4 26 9 49 29 54 46 106 50 146 10 l25 -25 -30 -30 c-31 -31
-49 -66 -38 -76 3 -3 10 6 15 19 15 41 58 68 107 68 88 0 112 -29 101 -123 -5
-37 -4 -48 5 -39 6 6 12 37 14 68 1 34 8 60 16 65 23 15 48 10 73 -16 30 -29
34 -89 10 -135 -10 -19 -11 -30 -5 -30 15 0 40 62 40 97 0 15 -7 40 -14 55
-18 34 -4 46 30 27 62 -33 73 -244 19 -355 -56 -114 -258 -275 -297 -236 -6 6
2 25 26 57 20 25 36 52 36 58 -1 7 -9 1 -18 -12 -40 -56 -81 -91 -106 -91 -31
0 -31 0 -5 44 11 20 19 41 16 48 -2 7 -11 -3 -19 -22 -21 -49 -53 -65 -107
-50 -62 16 -85 43 -78 91 3 22 1 39 -4 39 -5 0 -10 -12 -11 -27 0 -16 -2 -34
-2 -42 -2 -23 -23 -24 -44 -3 -26 26 -44 112 -37 176 5 42 4 48 -6 32 -8 -13
-10 -47 -6 -102 5 -83 4 -84 -18 -84 -33 0 -80 43 -99 90 -20 51 -40 221 -32
280 16 122 62 192 158 239 74 37 145 42 172 12z m131 7 c31 -14 32 -22 0 -36
-39 -18 -128 17 -95 38 21 13 64 12 95 -2z m263 -99 c26 -23 21 -44 -7 -30
-19 11 -39 10 -59 -3 -7 -4 -11 -4 -10 1 1 4 -3 18 -10 31 -12 21 -11 22 26
22 25 0 46 -7 60 -21z"/>
<path d="M4536 5265 l-61 -65 -44 22 c-39 19 -48 20 -88 10 -33 -9 -49 -9 -65
-1 -47 25 -166 -13 -236 -75 -61 -56 -85 -121 -90 -246 -7 -184 26 -293 102
-329 23 -12 52 -21 63 -21 11 0 26 -7 33 -15 7 -8 25 -15 41 -15 15 0 31 -5
34 -11 13 -20 96 -44 190 -54 17 -1 38 -6 48 -10 51 -21 133 22 238 125 106
104 147 236 119 384 -12 67 -44 116 -74 116 -8 0 -20 8 -25 19 -13 23 -70 51
-105 51 -49 0 -26 52 47 105 14 11 29 25 31 32 8 21 -23 43 -61 43 -32 0 -44
-8 -97 -65z m141 28 c2 -6 -12 -21 -33 -33 -64 -40 -92 -112 -59 -156 23 -30
18 -33 -22 -13 -21 10 -55 19 -78 19 -29 0 -44 5 -53 20 -10 17 -9 21 16 34
30 16 71 55 104 100 36 48 113 66 125 29z m-383 -89 c22 -22 20 -30 -13 -44
-34 -14 -77 -57 -68 -67 4 -4 23 8 41 26 49 47 114 54 151 17 l27 -27 -36 -39
c-20 -22 -36 -48 -35 -58 0 -15 1 -15 12 3 33 53 65 75 111 75 90 0 114 -28
103 -121 -4 -28 -2 -47 3 -44 8 5 15 43 23 125 2 19 -3 45 -11 58 -14 21 -13
22 25 22 26 0 47 -7 61 -21 29 -27 20 -41 -19 -27 -22 8 -34 7 -42 -1 -8 -8
-4 -11 16 -11 43 0 77 -40 77 -90 0 -23 -7 -54 -15 -70 -9 -17 -11 -30 -5 -30
14 0 40 67 40 104 0 17 -7 41 -15 53 -20 28 -2 40 31 22 62 -33 73 -244 20
-354 -44 -89 -195 -227 -264 -241 -44 -9 -47 10 -7 61 19 26 35 52 35 58 -1 7
-9 1 -18 -11 -35 -48 -77 -91 -92 -93 -47 -5 -50 -1 -25 37 14 20 25 44 25 53
0 9 -11 -3 -25 -26 -33 -54 -66 -62 -132 -31 -48 23 -48 23 -47 71 0 60 -13
61 -22 2 -3 -25 -10 -45 -15 -45 -39 0 -74 108 -63 193 6 39 4 48 -6 42 -9 -6
-11 -32 -8 -101 5 -93 5 -94 -18 -94 -32 0 -79 43 -97 89 -9 21 -21 78 -28
126 -27 203 25 335 155 396 70 33 145 39 170 13z m131 4 c30 -14 31 -19 6 -35
-13 -8 -29 -9 -52 -3 -17 5 -35 7 -40 5 -11 -8 -22 14 -15 30 7 18 64 20 101
3z"/>
<path d="M2737 5293 c-5 -27 -8 -28 -50 -25 l-44 4 -15 -59 -14 -58 -40 3 -41
3 -21 -58 c-27 -73 -99 -199 -157 -278 -87 -116 -118 -142 -318 -266 -31 -19
-53 -41 -63 -64 -9 -23 -21 -35 -34 -35 -11 0 -20 -4 -20 -10 0 -5 13 -7 30
-4 35 7 48 -12 30 -45 -6 -12 -7 -21 -1 -21 5 0 12 7 15 16 4 11 13 14 28 11
27 -8 93 21 135 59 104 94 284 248 304 260 83 48 241 118 323 141 l95 28 3 49
3 50 49 12 c27 7 52 16 56 21 4 4 10 29 14 56 5 46 5 47 -22 47 -15 0 -56 -7
-91 -15 -35 -9 -65 -14 -67 -12 -2 2 5 48 16 102 12 53 20 99 18 100 -2 1 -28
6 -59 9 -56 7 -56 7 -62 -21z m103 -7 c0 -21 -27 -146 -38 -175 -5 -16 -26
-31 -63 -46 l-54 -22 22 69 c12 38 24 85 26 104 2 19 7 37 10 41 4 3 7 15 7
25 0 15 8 18 45 18 32 0 45 -4 45 -14z m-120 -56 c0 -28 -49 -190 -74 -246
-21 -46 -29 -53 -72 -68 -26 -9 -48 -15 -50 -13 -1 1 13 34 32 72 26 56 70
175 99 271 6 19 65 4 65 -16z m-124 -117 c-17 -71 -126 -271 -185 -340 -33
-40 -57 -73 -52 -73 10 0 82 83 119 137 15 22 44 40 95 62 66 27 278 93 283
88 1 -1 4 -19 5 -40 l4 -38 -115 -38 c-211 -69 -313 -131 -507 -309 -145 -134
-200 -163 -237 -126 -20 20 -21 68 -1 84 12 10 19 10 27 2 9 -9 9 -12 0 -12
-7 0 -12 -7 -12 -16 0 -10 8 -6 24 13 13 15 22 30 20 33 -3 2 -9 -2 -13 -9 -5
-8 -11 -9 -15 -3 -3 5 25 28 63 51 71 42 169 117 209 161 60 65 197 289 221
363 11 32 17 37 43 37 28 0 30 -2 24 -27z m391 -39 c-3 -20 -7 -38 -9 -39 -2
-2 -66 -19 -143 -39 -77 -19 -150 -38 -162 -42 -23 -6 -23 -6 -7 32 9 22 18
41 20 43 12 13 236 81 268 81 l39 0 -6 -36z"/>
<path d="M5865 5292 c-6 -28 -8 -29 -48 -25 l-43 5 -15 -58 -15 -59 -42 3
c-38 3 -42 2 -48 -25 -11 -44 -71 -160 -131 -251 -97 -146 -156 -201 -343
-314 -44 -27 -65 -48 -76 -73 -9 -23 -21 -35 -34 -35 -11 0 -20 -4 -20 -10 0
-5 14 -7 33 -4 l32 5 -27 -18 c-37 -24 -36 -37 2 -18 32 17 36 14 20 -16 -6
-11 -7 -19 -1 -19 5 0 11 6 14 14 3 8 20 14 41 14 45 0 102 35 191 115 236
215 315 265 532 336 l118 39 3 50 3 50 43 6 c59 9 73 23 80 80 l6 49 -55 -7
c-31 -3 -73 -12 -95 -20 -22 -7 -40 -12 -40 -9 0 3 9 50 20 105 12 55 20 102
18 103 -2 2 -28 6 -60 9 -56 7 -56 7 -63 -22z m99 -1 c6 -9 -8 -97 -25 -162
-8 -31 -16 -39 -61 -58 -28 -12 -52 -20 -53 -19 -2 2 11 58 29 126 l31 122 37
0 c20 0 39 -4 42 -9z m-129 -41 l23 0 -15 -57 c-21 -82 -49 -172 -67 -215 -12
-28 -27 -42 -62 -57 -26 -12 -50 -21 -55 -21 -4 0 8 35 28 78 41 88 93 237 93
265 0 13 5 17 16 13 9 -3 26 -6 39 -6z m-105 -124 c0 -16 -39 -106 -82 -191
-39 -77 -110 -177 -144 -204 -15 -12 -24 -24 -20 -28 9 -9 69 51 114 116 42
60 78 79 257 132 55 16 107 32 116 35 13 4 18 -4 21 -37 2 -23 -1 -43 -7 -44
-189 -58 -300 -102 -370 -147 -58 -37 -151 -112 -241 -197 -167 -157 -254
-183 -254 -77 0 27 43 62 128 105 23 12 42 26 42 31 0 6 5 10 11 10 19 0 111
80 155 134 83 104 180 264 203 339 11 32 17 37 42 37 18 0 29 -5 29 -14z m390
-33 c-1 -50 -11 -62 -69 -74 -31 -6 -103 -25 -160 -41 -57 -16 -105 -27 -107
-25 -2 2 4 20 14 40 13 30 26 41 64 55 27 9 48 20 48 25 0 4 4 6 8 3 5 -3 35
4 68 14 78 25 134 26 134 3z"/>
<path d="M5190 4539 c-27 -11 -40 -27 -39 -49 0 -9 4 -7 11 7 6 12 21 24 34
27 13 4 24 11 24 16 0 6 -1 10 -2 9 -2 0 -14 -5 -28 -10z"/>
<path d="M350 5258 c1 -21 2 -21 11 -5 10 17 16 15 85 -22 92 -50 144 -89 144
-108 0 -8 5 -11 10 -8 6 3 10 10 10 14 0 13 -143 109 -195 131 -59 25 -65 25
-65 -2z"/>
<path d="M3480 5260 c0 -25 -23 -81 -56 -138 l-25 -43 -42 31 c-53 39 -98 40
-126 4 -49 -62 -34 -160 31 -220 87 -78 203 -111 286 -81 28 10 36 10 40 -1 5
-16 55 -42 82 -42 59 0 150 83 150 137 0 23 -30 44 -82 57 -27 6 -28 9 -28 70
0 44 5 67 15 76 8 7 15 16 15 20 0 10 -133 101 -187 129 -53 26 -73 27 -73 1z
m210 -100 l35 -28 -25 -27 c-13 -14 -56 -44 -95 -66 l-70 -41 -62 33 c-60 31
-75 50 -53 64 12 7 60 99 60 114 0 5 5 22 10 36 l10 26 78 -41 c42 -23 93 -54
112 -70z m-352 -50 c19 -11 43 -29 55 -40 11 -11 60 -40 108 -65 48 -25 90
-52 93 -61 31 -81 -46 -148 -151 -131 -48 8 -137 54 -178 92 -43 39 -62 107
-45 159 22 69 58 82 118 46z m362 -100 l0 -69 -45 1 c-43 0 -67 18 -25 18 11
0 18 5 16 13 -18 58 -17 67 16 87 18 11 34 20 36 20 1 0 2 -31 2 -70z m-72
-12 c4 -33 -24 -45 -50 -21 -19 17 -19 17 4 35 29 22 42 18 46 -14z m160 -64
c30 -21 28 -47 -10 -90 -57 -65 -132 -79 -173 -34 -16 18 -16 22 -1 60 9 23
14 45 11 49 -2 5 17 9 44 9 26 1 59 6 72 11 32 13 32 13 57 -5z"/>
<path d="M3530 5171 c0 -12 -5 -31 -11 -43 -6 -11 -9 -22 -6 -24 2 -3 12 12
22 32 12 26 14 39 6 47 -8 8 -11 5 -11 -12z"/>
<path d="M3622 5134 c-7 -8 -8 -14 -3 -14 10 0 25 19 20 25 -2 1 -10 -3 -17
-11z"/>
<path d="M3570 5090 c-14 -10 -23 -21 -20 -23 3 -3 19 6 35 19 35 28 22 32
-15 4z"/>
<path d="M3259 5047 c-6 -14 -8 -38 -5 -53 8 -29 69 -94 89 -94 6 0 0 8 -13
17 -55 38 -79 88 -59 124 6 11 8 23 5 26 -3 3 -10 -6 -17 -20z"/>
<path d="M331 5192 c-8 -20 -26 -53 -40 -74 l-27 -36 -39 29 c-69 52 -132 30
-150 -52 -19 -87 33 -167 147 -223 75 -38 143 -47 192 -25 21 10 29 8 51 -9
15 -12 42 -24 61 -28 65 -12 171 78 162 138 -2 17 -16 28 -55 43 l-53 20 0 67
0 68 -47 -34 c-27 -18 -67 -43 -90 -56 l-43 -23 -35 19 c-20 10 -47 28 -62 39
l-25 21 25 37 c26 38 52 105 45 112 -2 3 -10 -12 -17 -33z m-62 -126 c53 -36
115 -72 138 -81 50 -20 77 -64 62 -103 -5 -14 -8 -27 -5 -29 4 -5 16 28 21 56
1 12 15 17 55 19 29 1 61 7 72 13 24 13 68 -12 68 -39 0 -28 -66 -99 -104
-112 -46 -15 -81 -4 -111 34 -14 17 -25 26 -25 19 0 -18 -67 -36 -114 -31 -75
9 -181 70 -217 124 -49 74 -22 194 43 194 12 0 64 -29 117 -64z m298 -23 c-8
-49 1 -83 22 -84 9 -1 -1 -6 -22 -11 -21 -6 -40 -8 -43 -6 -2 3 -8 26 -13 51
-8 44 -7 48 18 67 37 28 44 25 38 -17z m-67 -41 c0 -17 -8 -32 -21 -40 -12 -8
-18 -9 -14 -3 3 6 3 11 -2 11 -4 0 -15 5 -23 10 -13 9 -11 13 10 30 35 27 50
25 50 -8z m10 -52 c0 -5 -7 -10 -15 -10 -8 0 -15 5 -15 10 0 6 7 10 15 10 8 0
15 -4 15 -10z"/>
<path d="M129 5046 c-7 -14 -8 -37 -5 -52 8 -30 67 -94 87 -94 8 0 -1 10 -18
23 -45 31 -68 80 -54 118 12 35 5 39 -10 5z"/>
<path d="M400 5169 c0 -13 -7 -35 -16 -47 -8 -12 -11 -22 -6 -22 17 0 45 71
33 83 -8 8 -11 4 -11 -14z"/>
<path d="M461 5109 c-24 -22 -42 -41 -40 -44 3 -2 25 13 49 34 25 22 43 41 40
44 -3 3 -25 -13 -49 -34z"/>
<path d="M3003 4780 c-20 -8 -21 -13 -13 -36 6 -15 8 -29 6 -32 -3 -3 -8 3
-12 12 -8 20 -28 21 -44 2 -9 -12 -3 -23 34 -59 41 -39 60 -77 38 -77 -12 0
-42 -56 -42 -79 0 -26 195 -548 221 -590 28 -47 53 -38 57 19 5 59 -46 555
-62 600 -10 30 -54 71 -88 82 -8 3 -7 18 4 51 l15 47 -33 6 c-29 5 -34 10 -34
35 0 30 -9 34 -47 19z m36 -67 c1 -31 5 -61 8 -66 3 -6 1 -7 -5 -3 -7 4 -12
15 -12 24 -1 9 -7 34 -14 54 -14 38 -12 48 9 48 7 0 12 -22 14 -57z m-53 -15
l17 -33 -24 20 c-13 11 -26 21 -28 22 -4 2 9 23 14 23 3 0 12 -15 21 -32z
m102 -19 c-13 -38 -18 -37 -18 6 0 26 4 33 14 29 11 -4 12 -12 4 -35z m44 -88
c31 -16 44 -45 53 -118 l7 -52 -46 -6 c-25 -4 -44 -11 -41 -15 3 -5 21 -4 41
2 20 5 38 7 41 5 6 -7 22 -130 23 -174 0 -28 -5 -34 -32 -43 l-33 -10 37 3 37
3 6 -76 c4 -41 7 -81 8 -89 1 -8 -9 -18 -23 -22 l-25 -7 28 -1 c25 -1 27 -4
27 -40 0 -75 -26 -60 -65 36 l-24 58 27 12 27 13 -30 -5 c-30 -5 -31 -4 -58
72 -15 43 -27 81 -27 85 0 3 14 9 30 13 17 4 30 10 30 15 0 5 -14 4 -32 -1
-17 -5 -34 -6 -37 -3 -3 3 -22 49 -43 102 l-36 97 41 7 c22 4 45 13 51 19 8 9
6 10 -7 5 -10 -3 -36 -9 -57 -12 -33 -6 -38 -4 -42 17 -6 32 8 83 27 99 14 11
72 29 85 25 3 0 17 -7 32 -14z"/>
<path d="M3110 4334 l-45 -14 44 4 c24 3 48 9 54 15 13 13 5 12 -53 -5z"/>
<path d="M6133 4777 c-20 -11 -21 -14 -7 -47 l14 -35 -23 28 -23 28 -20 -22
c-19 -21 -19 -21 5 -40 13 -10 28 -19 35 -19 6 1 1 9 -12 20 -13 11 -20 24
-17 31 5 7 14 1 24 -15 10 -14 22 -23 26 -19 5 5 4 0 -3 -9 -11 -14 -11 -21 3
-41 15 -23 15 -27 -10 -62 -14 -21 -25 -49 -25 -63 0 -30 154 -438 158 -419 1
7 -6 35 -18 61 -24 56 -25 76 -6 76 8 0 18 5 21 11 4 6 -3 9 -20 7 -25 -3 -29
3 -66 96 -21 54 -39 99 -39 101 0 1 20 6 45 9 24 4 48 12 51 18 5 7 -2 9 -21
4 -79 -20 -82 -20 -88 11 -12 65 50 127 118 117 28 -4 29 -4 8 7 -26 14 -27
20 -9 71 l13 38 -33 6 c-29 5 -34 10 -34 35 0 31 -12 36 -47 16z m37 -69 c0
-65 -8 -73 -17 -16 -3 18 -9 41 -14 50 -13 24 -11 28 11 28 18 0 20 -7 20 -62z
m48 -29 c-13 -38 -18 -37 -18 6 0 26 4 33 14 29 11 -4 12 -12 4 -35z"/>
<path d="M0 4606 c0 -6 11 -21 24 -35 17 -19 25 -43 30 -88 4 -35 3 -63 -1
-64 -24 -2 -46 -8 -51 -15 -4 -4 7 -4 25 -1 30 6 33 4 39 -28 3 -20 7 -68 8
-107 l1 -72 -30 -7 c-30 -7 -29 -7 7 -8 l37 -1 7 -82 c9 -100 10 -92 -18 -100
-22 -6 -21 -6 5 -7 25 -1 27 -4 27 -40 0 -75 -25 -61 -64 35 l-24 59 26 12
c27 11 27 12 -5 6 -27 -5 -33 -2 -34 13 0 11 -3 14 -6 6 -6 -16 42 -141 67
-171 32 -38 50 -21 50 46 0 50 -42 469 -56 561 -5 30 -63 110 -64 88z"/>
<path d="M390 4524 c-74 -63 -79 -145 -10 -202 26 -22 124 -69 157 -76 38 -9
83 -42 83 -61 0 -25 -40 -28 -71 -6 -59 44 -129 15 -129 -54 0 -73 68 -102
173 -73 24 6 55 8 70 4 39 -9 96 -63 119 -113 25 -53 53 -63 109 -37 44 19 79
57 79 84 0 10 -20 47 -44 82 -70 102 -78 128 -80 254 -2 120 -15 157 -58 173
-62 23 -103 -23 -95 -106 7 -65 1 -83 -24 -83 -12 0 -29 18 -48 53 -102 185
-157 223 -231 161z m100 1 c16 -8 38 -28 50 -45 20 -28 21 -33 7 -54 -9 -13
-23 -31 -33 -40 -9 -9 -14 -19 -12 -22 3 -2 19 11 36 31 l32 35 24 -47 c25
-49 60 -93 75 -93 20 0 43 41 39 70 -4 29 -3 30 36 31 l41 2 -40 6 c-46 7 -56
28 -31 66 21 31 65 33 92 4 14 -15 20 -40 22 -95 l4 -74 -27 0 c-14 0 -35 5
-46 10 -11 6 -19 7 -19 1 0 -12 25 -21 61 -21 24 0 29 -4 29 -25 0 -40 38
-128 85 -201 25 -37 45 -71 45 -75 0 -16 -43 -58 -75 -73 -45 -22 -73 -13 -91
29 -7 18 -29 50 -49 70 -19 21 -35 41 -35 46 0 4 14 17 31 29 16 12 28 25 25
28 -4 3 -18 -5 -32 -19 -19 -17 -41 -25 -87 -30 -34 -4 -86 -10 -116 -14 -60
-9 -57 -16 -35 64 5 17 4 22 -4 17 -7 -4 -12 -15 -12 -24 0 -9 -5 -24 -10 -32
-9 -13 -12 -12 -25 4 -52 68 30 139 98 86 14 -11 33 -20 42 -20 20 0 125 86
125 102 0 5 -13 -4 -29 -21 -34 -36 -42 -38 -66 -12 -9 11 -47 30 -84 41 -36
12 -83 33 -105 47 l-38 25 31 32 c17 18 31 36 31 41 0 5 -14 -6 -31 -23 -39
-40 -53 -40 -69 -2 -17 41 -5 77 39 122 42 42 58 45 101 23z"/>
<path d="M552 4318 c-13 -15 -19 -28 -14 -28 13 0 45 37 41 48 -2 5 -14 -4
-27 -20z"/>
<path d="M873 4046 c-4 -8 -22 -22 -38 -30 -18 -10 -23 -16 -13 -16 20 0 76
46 66 55 -3 4 -10 0 -15 -9z"/>
<path d="M3522 4524 c-62 -49 -78 -111 -42 -169 22 -35 110 -87 188 -110 60
-18 91 -48 72 -70 -16 -20 -30 -19 -60 5 -30 24 -78 26 -108 4 -16 -11 -22
-25 -22 -55 0 -79 63 -107 173 -77 24 6 55 8 70 4 39 -9 104 -71 117 -112 14
-42 41 -58 86 -50 40 8 104 65 104 94 0 11 -21 50 -47 88 -59 86 -87 171 -78
239 7 65 -8 142 -33 168 -28 28 -81 25 -106 -5 -15 -19 -17 -34 -13 -85 5 -47
3 -64 -8 -73 -24 -20 -40 -5 -84 75 -41 77 -81 136 -81 119 0 -5 9 -20 20 -34
25 -33 25 -33 -11 -75 -18 -20 -29 -38 -27 -41 3 -2 19 11 36 30 l30 35 15
-22 c8 -12 17 -31 20 -42 8 -22 53 -75 66 -75 20 0 43 41 39 70 -4 29 -3 30
36 31 l41 2 -40 6 c-46 7 -56 28 -31 66 12 18 25 25 49 25 46 0 67 -38 67
-124 0 -64 -1 -66 -26 -66 -14 0 -34 5 -45 10 -11 6 -19 7 -19 1 0 -12 25 -21
61 -21 24 0 29 -4 29 -25 0 -36 35 -124 72 -180 60 -88 61 -93 44 -119 -8 -13
-31 -34 -51 -46 -51 -32 -77 -22 -114 45 -17 30 -42 62 -56 71 l-26 17 36 30
c20 16 34 32 30 35 -3 3 -17 -5 -31 -19 -18 -17 -42 -26 -87 -31 -34 -4 -86
-10 -114 -14 -57 -7 -60 -4 -43 42 8 19 8 30 0 38 -9 8 -11 7 -9 -4 4 -20 -10
-60 -21 -60 -14 0 -30 35 -30 64 0 28 33 56 65 56 11 0 31 -9 45 -20 14 -11
33 -20 43 -20 17 0 101 60 119 85 19 25 5 19 -28 -12 l-36 -33 -19 25 c-11 13
-39 29 -61 36 -58 15 -141 53 -155 71 -10 12 -7 20 17 43 17 16 30 33 30 39 0
6 -16 -7 -36 -29 -35 -36 -38 -37 -51 -19 -36 49 -24 104 34 154 38 34 59 37
91 14 12 -8 22 -11 22 -5 0 14 -34 31 -62 31 -13 0 -38 -12 -56 -26z"/>
<path d="M2606 4433 l-17 -51 -62 -7 c-141 -16 -253 -73 -325 -164 -37 -46
-90 -157 -80 -166 7 -7 68 18 68 28 0 4 -9 3 -19 -3 -40 -21 -28 8 22 56 74
71 116 100 241 166 120 62 131 81 13 22 -92 -46 -225 -134 -255 -169 -33 -38
-38 -24 -9 22 31 49 104 116 154 141 83 42 182 62 213 42 12 -8 11 -12 -6 -32
-20 -23 -31 -74 -14 -63 14 8 23 -40 17 -81 -5 -28 -45 -80 -55 -70 -1 2 9 28
23 60 14 31 25 62 25 69 0 7 -27 -46 -60 -118 l-60 -130 -43 -2 -42 -3 30 20
c44 29 65 61 65 102 0 31 8 46 45 84 25 25 45 51 45 57 0 7 -7 3 -16 -8 -30
-41 -66 -75 -79 -75 -30 0 -23 20 17 48 24 16 52 40 63 52 l20 23 -23 -12
c-13 -7 -26 -19 -29 -27 -3 -8 -9 -14 -15 -14 -5 0 -24 -11 -42 -25 -20 -15
-46 -25 -66 -25 -40 0 -116 -43 -125 -70 -3 -11 -11 -20 -16 -20 -5 0 -9 -18
-9 -39 0 -56 38 -85 99 -77 l45 6 -27 -27 c-40 -43 -60 -99 -52 -149 17 -115
142 -104 194 17 25 57 22 100 -11 135 -19 21 -19 22 11 85 l30 64 -6 -46 c-3
-26 0 -62 6 -82 12 -36 55 -87 74 -87 6 0 -4 14 -21 31 -53 52 -66 158 -22
179 8 4 25 12 38 19 19 10 28 9 46 -3 30 -19 56 -75 56 -118 0 -43 -34 -98
-60 -98 -11 0 -20 -4 -20 -9 0 -5 12 -6 27 -2 33 9 63 63 63 114 0 74 -54 146
-99 134 -14 -3 -19 0 -16 12 1 9 6 41 10 71 10 77 15 79 36 21 10 -28 34 -74
54 -101 37 -50 104 -110 124 -110 6 0 11 18 11 44 0 58 -10 106 -22 106 -6 0
-7 -8 -4 -17 4 -9 10 -36 13 -60 7 -50 -8 -58 -30 -15 -8 15 -39 71 -70 124
-56 97 -74 138 -62 138 18 0 88 -66 116 -111 39 -60 49 -64 17 -8 -25 45 -103
126 -130 135 -15 4 -15 9 -1 49 8 25 13 50 11 57 -3 7 -12 -10 -22 -39z m4
-120 c0 -5 29 -59 65 -122 36 -63 63 -116 61 -118 -6 -7 -88 91 -107 129 -23
45 -40 118 -28 118 5 0 9 -3 9 -7z m-214 -160 c3 -10 11 -28 16 -40 32 -65
-87 -154 -164 -122 -36 15 -44 48 -23 93 26 54 73 84 133 85 23 1 34 -4 38
-16z m4 -193 c0 -5 8 -10 18 -10 29 0 42 -21 42 -70 0 -36 -7 -57 -30 -88 -17
-23 -31 -42 -33 -42 -1 0 -17 -4 -34 -9 -91 -26 -122 121 -43 201 28 27 80 39
80 18z"/>
<path d="M2274 4106 c-19 -19 -34 -40 -34 -46 0 -7 10 0 22 15 12 15 35 36 52
46 23 14 26 19 13 19 -11 0 -34 -15 -53 -34z"/>
<path d="M2406 3845 c-4 -14 -21 -34 -39 -45 -22 -14 -27 -20 -14 -20 10 0 28
11 41 25 25 27 40 65 26 65 -4 0 -11 -11 -14 -25z"/>
<path d="M5742 4452 c-6 -17 -9 -32 -6 -32 3 0 -1 -9 -9 -21 -12 -16 -28 -22
-69 -25 -146 -10 -308 -103 -358 -206 l-11 -23 19 22 c11 12 31 36 46 53 63
76 226 149 303 137 47 -8 50 -13 24 -34 -12 -10 -23 -28 -26 -40 -6 -33 -20
-54 -59 -92 -28 -27 -39 -32 -48 -23 -9 9 -6 16 13 31 48 38 94 81 87 81 -5 0
-36 -22 -70 -50 -47 -38 -70 -50 -95 -50 -44 0 -105 -32 -122 -63 -15 -29 -81
-64 -81 -44 0 35 148 152 263 208 37 18 67 37 67 41 0 19 -181 -86 -260 -152
-25 -20 -50 -35 -56 -33 -10 3 -44 -63 -44 -87 0 -5 18 -3 40 5 37 13 40 13
40 -3 1 -9 8 -1 16 18 20 46 42 69 83 86 47 20 90 18 97 -3 3 -10 11 -28 16
-40 19 -39 -8 -82 -69 -110 -60 -28 -90 -25 -125 10 l-22 22 16 -25 c22 -36
58 -46 109 -31 63 19 109 69 109 118 0 31 7 46 38 78 22 22 45 51 51 63 20 37
23 19 5 -24 -30 -74 -113 -244 -119 -244 -4 0 -3 5 0 10 11 18 -32 10 -66 -13
-38 -25 -79 -97 -79 -140 0 -36 25 -83 51 -97 11 -6 33 -8 49 -5 31 7 105 73
95 84 -4 3 -16 -7 -27 -22 -52 -71 -129 -69 -148 4 -13 46 -2 94 29 138 21 28
77 57 83 42 2 -4 17 -14 33 -22 28 -14 30 -18 30 -72 0 -38 3 -53 10 -46 18
18 11 86 -13 118 l-22 30 29 63 30 63 -6 -52 c-15 -134 118 -227 173 -122 30
59 6 166 -45 197 -29 17 -26 4 3 -19 31 -25 50 -81 43 -131 -15 -108 -121
-102 -158 9 -19 58 3 123 41 123 10 0 23 7 30 15 10 12 10 15 0 15 -10 0 -11
15 -6 61 6 59 25 116 26 77 0 -40 56 -132 113 -188 79 -79 91 -79 85 4 -9 108
-75 217 -160 262 l-27 14 15 45 c9 24 14 50 12 57 -3 7 -10 -2 -16 -20z m69
-152 c28 -28 59 -69 69 -93 21 -47 37 -147 24 -147 -14 0 -164 261 -164 285 0
16 27 -1 71 -45z m-11 -97 c36 -63 66 -121 68 -127 6 -22 -90 88 -108 125 -21
41 -42 119 -31 119 3 -1 35 -53 71 -117z m-122 -18 c-4 -31 -12 -50 -29 -64
-13 -11 -25 -18 -26 -17 -4 4 49 126 55 126 2 0 2 -20 0 -45z"/>
<path d="M1946 4425 c-11 -8 -17 -17 -14 -20 3 -3 16 3 29 14 27 23 14 28 -15
6z"/>
<path d="M6235 4400 c3 -5 10 -10 16 -10 5 0 9 5 9 10 0 6 -7 10 -16 10 -8 0
-12 -4 -9 -10z"/>
<path d="M10 4340 c-8 -5 -12 -11 -9 -14 3 -3 14 1 25 9 21 16 8 20 -16 5z"/>
<path d="M5630 4340 c-24 -15 -7 -19 20 -5 15 8 19 14 10 14 -8 1 -22 -3 -30
-9z"/>
<path d="M3680 4315 c-13 -14 -19 -25 -13 -25 12 0 48 38 41 45 -2 3 -15 -6
-28 -20z"/>
<path d="M6213 4323 c9 -2 25 -2 35 0 9 3 1 5 -18 5 -19 0 -27 -2 -17 -5z"/>
<path d="M5 4250 c-3 -5 -1 -10 4 -10 6 0 11 5 11 10 0 6 -2 10 -4 10 -3 0 -8
-4 -11 -10z"/>
<path d="M1252 4235 c-19 -8 -36 -24 -39 -35 -4 -14 -17 -22 -44 -26 -41 -7
-44 -10 -30 -33 6 -10 19 -12 41 -8 26 6 33 3 37 -12 9 -37 52 -44 215 -37
123 6 164 4 211 -8 123 -34 207 -99 248 -192 10 -25 23 -42 29 -39 31 19 -10
140 -68 201 -54 57 -157 128 -227 154 -43 16 -27 0 23 -23 139 -66 242 -170
266 -269 3 -16 2 -28 -3 -28 -5 0 -12 11 -15 24 -3 13 -26 46 -50 73 -84 94
-244 143 -398 123 -140 -18 -197 -10 -169 24 7 9 7 16 -1 24 -8 8 -8 15 1 25
9 12 8 16 -6 21 -15 6 -15 8 0 23 27 27 218 19 300 -13 9 -3 17 -2 17 4 0 31
-281 54 -338 27z m3 -58 c0 -14 3 -29 7 -33 8 -8 -9 -34 -22 -34 -9 0 -21 81
-13 93 10 16 28 0 28 -26z m-35 -21 c0 -2 -16 -6 -35 -8 -19 -2 -35 0 -35 4 0
4 16 8 35 8 19 0 35 -2 35 -4z"/>
<path d="M4380 4233 c-19 -10 -35 -25 -35 -33 0 -9 -16 -19 -40 -25 -30 -8
-40 -14 -37 -27 3 -14 13 -18 43 -18 26 0 39 -4 39 -14 0 -30 55 -39 204 -31
153 7 221 -1 300 -36 64 -28 128 -90 159 -153 30 -60 47 -65 47 -13 0 125
-182 291 -375 342 -33 9 -107 18 -165 21 -88 4 -111 2 -140 -13z m225 -7 c191
-18 408 -178 440 -323 9 -43 -1 -42 -19 1 -56 134 -256 221 -451 196 -139 -18
-194 -10 -165 25 7 9 8 15 0 20 -5 3 -7 17 -4 31 4 15 2 24 -6 24 -6 0 -10 6
-8 13 8 23 64 27 213 13z m-220 -54 c-3 -8 -1 -20 5 -27 7 -9 6 -16 -4 -24
-16 -13 -20 -9 -30 31 -9 38 2 62 21 47 7 -7 11 -19 8 -27z m-57 -19 c-10 -2
-26 -2 -35 0 -10 3 -2 5 17 5 19 0 27 -2 18 -5z"/>
<path d="M4505 4210 c-4 -6 11 -10 43 -10 43 0 103 -13 155 -35 9 -4 17 -3 17
3 0 21 -203 61 -215 42z"/>
<path d="M1375 4210 c-4 -6 12 -10 42 -9 39 1 43 3 23 9 -36 11 -58 11 -65 0z"/>
<path d="M1470 4201 c0 -6 9 -11 20 -11 11 0 37 -7 57 -15 20 -8 38 -13 41
-10 6 5 -50 30 -91 40 -17 5 -27 3 -27 -4z"/>
<path d="M5404 4104 c-19 -19 -34 -40 -34 -46 0 -6 10 2 22 17 12 15 35 36 52
46 23 14 26 19 12 19 -10 0 -34 -16 -52 -36z"/>
<path d="M2600 4088 c1 -2 9 -28 20 -58 11 -32 19 -45 20 -32 0 24 -25 92 -34
92 -4 0 -6 -1 -6 -2z"/>
<path d="M5730 4088 c1 -2 9 -28 20 -58 11 -32 19 -45 20 -32 0 24 -25 92 -34
92 -4 0 -6 -1 -6 -2z"/>
<path d="M3994 4039 c-10 -12 -28 -25 -39 -30 -16 -6 -17 -8 -3 -8 19 -1 76
44 67 53 -3 3 -14 -3 -25 -15z"/>
<path d="M1193 3891 c-29 -20 -57 -41 -63 -47 -9 -9 -18 -5 -35 12 -36 36 -45
30 -45 -31 0 -51 -2 -55 -32 -71 -18 -9 -36 -21 -39 -26 -3 -5 -9 -9 -13 -9
-3 1 -18 -6 -32 -15 -30 -20 -21 -34 25 -37 27 -2 31 -5 25 -22 -3 -11 -8 -48
-11 -83 -18 -217 200 -316 397 -180 45 31 106 101 133 154 23 45 38 131 31
177 -19 118 -99 187 -219 187 -42 0 -55 3 -55 15 0 21 -8 18 -67 -24z m47 -1
c0 -17 -88 -100 -105 -100 -30 0 -11 33 40 72 52 39 65 45 65 28z m199 -38
c85 -67 106 -191 52 -306 -119 -247 -439 -292 -501 -70 -21 73 1 190 38 202
15 5 16 -45 2 -82 -7 -20 -6 -26 3 -26 29 0 97 101 97 144 0 10 9 16 25 16 37
0 86 23 114 53 l24 26 -53 -6 -52 -6 29 41 c34 49 41 52 122 47 52 -4 72 -10
100 -33z m-341 -24 c7 -24 6 -37 -3 -47 -20 -21 -35 -4 -35 40 0 49 25 54 38
7z m147 -48 c-7 -12 -71 -40 -91 -40 -20 0 -17 27 4 39 23 14 95 14 87 1z
m-121 -25 c-6 -14 -10 -17 -36 -19 -6 -1 -24 -13 -39 -28 -21 -22 -37 -28 -69
-28 -49 0 -46 9 18 48 35 21 53 27 69 21 15 -5 23 -3 27 7 3 8 12 14 20 14 10
0 13 -6 10 -15z m-14 -64 c-11 -39 -26 -65 -46 -82 -16 -13 -17 -10 -12 33 6
53 21 78 49 78 15 0 16 -5 9 -29z"/>
<path d="M1387 3800 c46 -28 67 -66 74 -135 l6 -60 1 60 c1 42 -3 68 -16 87
-21 32 -65 68 -84 68 -7 0 1 -9 19 -20z"/>
<path d="M1436 3563 c-3 -10 -9 -25 -13 -33 -5 -13 -4 -13 9 -2 18 14 31 52
18 52 -4 0 -10 -8 -14 -17z"/>
<path d="M2938 3900 c-9 -20 -20 -30 -35 -30 -38 0 -75 -41 -78 -86 -8 -113
-108 -227 -240 -271 -80 -26 -122 -59 -151 -119 -31 -63 -30 -118 3 -180 58
-112 241 -109 352 6 80 81 158 235 202 395 12 44 25 88 30 97 20 40 -1 121
-37 141 -11 6 -12 13 -3 28 6 11 8 27 5 35 -9 24 -34 16 -48 -16z m30 -19
c-24 -38 -39 -20 -17 21 7 13 14 17 21 10 6 -6 5 -17 -4 -31z m19 -43 c17 -14
36 -75 27 -89 -5 -9 -14 -4 -29 15 l-22 27 -17 -25 c-23 -36 -36 -32 -36 9 0
33 -1 34 -26 25 -14 -6 -30 -10 -35 -10 -19 0 -8 29 18 50 22 17 35 20 68 14
22 -3 45 -11 52 -16z m-88 -89 c9 -26 13 -29 30 -20 10 6 21 16 24 23 7 20 47
-21 47 -48 0 -38 -59 -212 -102 -300 -83 -171 -188 -259 -307 -258 -38 0 -69
7 -96 22 -22 12 -36 22 -31 22 5 0 2 8 -6 18 -24 27 -40 89 -33 125 19 87 63
134 159 167 76 26 151 79 197 140 21 29 39 56 39 60 0 4 7 24 15 44 19 46 49
48 64 5z"/>
<path d="M2526 3409 c-19 -16 -38 -39 -41 -50 -3 -10 -8 -28 -11 -39 -3 -11
-1 -20 5 -20 6 0 11 10 11 22 0 21 39 88 51 88 12 0 43 29 32 30 -7 0 -28 -14
-47 -31z"/>
<path d="M2494 3238 c9 -15 24 -29 32 -32 24 -9 15 8 -18 34 l-31 24 17 -26z"/>
<path d="M4366 3921 c-4 -5 -4 -15 -1 -23 7 -18 -75 -108 -99 -108 -30 0 -14
32 34 68 25 19 47 39 49 44 4 11 -47 -22 -85 -55 -21 -17 -22 -17 -38 8 -29
45 -46 32 -46 -35 0 -47 -3 -60 -15 -60 -27 0 -132 -75 -118 -83 5 -3 23 -8
41 -12 28 -6 32 -10 25 -28 -4 -12 -8 -56 -8 -97 0 -92 23 -141 84 -185 57
-40 150 -47 234 -15 79 30 167 112 208 196 28 56 32 76 32 139 -1 62 -5 82
-27 120 -26 44 -78 86 -123 100 -37 10 -26 -3 14 -20 79 -33 122 -102 123
-196 0 -97 -37 -177 -120 -257 -92 -88 -241 -115 -328 -59 -62 40 -97 117 -89
197 5 62 24 111 45 118 15 5 16 -45 2 -82 -7 -20 -6 -26 5 -26 22 0 75 71 88
118 8 32 16 42 32 42 28 1 97 33 118 57 17 20 17 20 -33 15 -27 -2 -50 -2 -50
0 0 3 17 24 38 46 31 34 45 42 82 45 l45 4 -52 1 c-42 2 -51 5 -47 17 7 16
-11 21 -20 6z m-137 -95 c11 -24 11 -30 -2 -43 -22 -23 -37 -7 -37 38 0 47 17
49 39 5z m140 -53 c-10 -11 -70 -33 -91 -33 -5 0 -8 7 -8 15 0 21 30 35 72 33
29 -1 35 -5 27 -15z m-109 -13 c0 -9 -31 -30 -45 -30 -3 0 -1 9 5 20 11 20 40
28 40 10z m-70 -46 c-7 -13 -17 -21 -21 -18 -4 2 -10 0 -14 -6 -3 -5 -24 -10
-46 -10 -36 0 -38 1 -27 19 7 11 19 22 28 25 8 3 31 12 50 20 40 15 49 6 30
-30z m50 -23 c-11 -39 -26 -65 -46 -82 -16 -13 -17 -10 -12 33 6 53 21 78 49
78 15 0 16 -5 9 -29z"/>
<path d="M6067 3901 c-8 -22 -19 -31 -43 -35 -43 -9 -66 -37 -69 -89 -4 -57
-36 -119 -88 -172 -45 -45 -93 -73 -173 -99 -144 -47 -200 -216 -105 -320 81
-88 231 -69 339 43 62 65 145 224 187 361 14 47 30 100 36 118 15 46 2 110
-27 135 -22 19 -23 23 -10 42 11 17 12 25 3 34 -19 19 -38 12 -50 -18z m39 -7
c-8 -7 -16 -19 -19 -26 -2 -7 -8 -10 -12 -6 -14 13 13 58 29 52 13 -5 13 -8 2
-20z m-25 -44 c43 -12 65 -49 60 -100 -1 -10 -9 -6 -25 13 l-23 28 -17 -25
c-23 -36 -36 -32 -36 9 0 33 -2 35 -21 25 -11 -6 -29 -10 -41 -8 -20 3 -19 5
10 36 33 35 40 37 93 22z m-53 -100 c12 -32 29 -32 52 0 13 18 14 18 32 -5 25
-32 23 -52 -17 -173 -88 -261 -188 -391 -328 -422 -95 -22 -160 9 -198 95 -45
101 13 208 136 249 80 28 158 83 205 145 22 29 40 57 40 61 0 4 7 24 15 44 19
46 49 48 63 6z"/>
<path d="M5659 3410 c-35 -28 -70 -110 -48 -110 5 0 9 12 9 27 0 18 14 40 45
70 52 49 47 58 -6 13z"/>
<path d="M5620 3240 c10 -18 50 -47 50 -36 0 3 -11 17 -25 31 -31 30 -39 32
-25 5z"/>
<path d="M5530 3837 c-8 -17 -26 -37 -40 -44 -14 -7 -18 -13 -10 -13 8 1 22 6
31 13 19 14 53 77 42 77 -5 0 -15 -15 -23 -33z"/>
<path d="M4517 3800 c45 -27 65 -62 73 -128 l7 -57 2 48 c0 27 -6 64 -15 83
-15 30 -68 74 -90 74 -5 0 5 -9 23 -20z"/>
<path d="M310 3793 c-68 -45 -200 -178 -233 -235 -36 -62 -59 -153 -51 -201 5
-30 14 -43 40 -59 19 -11 34 -26 34 -33 0 -24 50 -73 80 -80 17 -4 35 -15 40
-25 5 -10 20 -20 33 -24 77 -19 306 97 435 220 l54 52 -7 69 c-9 83 -16 97
-55 113 -42 18 -38 43 10 65 23 10 43 22 45 26 3 4 -9 22 -26 40 -27 29 -33
31 -43 18 -40 -54 -103 -64 -127 -21 -17 29 -73 62 -107 62 -11 0 -25 7 -32
15 -16 20 -59 19 -90 -2z m89 -24 c14 -25 12 -27 -86 -125 -70 -70 -114 -124
-150 -185 -53 -91 -76 -146 -67 -160 3 -5 -6 -4 -20 2 -48 22 -48 128 -1 225
32 65 122 165 208 230 67 50 93 53 116 13z m91 -19 c8 -5 24 -18 34 -29 19
-21 19 -21 -6 -21 -13 0 -33 7 -44 15 -10 8 -27 15 -36 15 -11 0 -18 8 -18 20
0 17 4 19 28 14 15 -4 34 -10 42 -14z m213 -44 c16 -23 15 -24 -13 -36 -44
-18 -63 -45 -58 -80 4 -27 2 -30 -16 -24 -23 6 -116 101 -116 118 0 2 26 2 58
-1 52 -5 61 -3 88 20 36 33 38 33 57 3z m-190 -61 c37 -44 76 -79 105 -94 59
-30 56 -25 48 -56 -5 -18 -43 -53 -129 -116 -67 -50 -134 -97 -149 -105 -16
-8 -28 -19 -28 -25 0 -15 204 127 272 190 57 52 59 53 78 36 11 -10 20 -26 20
-36 0 -17 -68 -107 -82 -108 -4 -1 -40 -25 -80 -53 -106 -76 -210 -122 -277
-123 -30 0 -56 5 -58 11 -2 5 24 23 57 38 33 15 60 32 60 36 0 5 -21 -3 -46
-17 -29 -16 -63 -26 -91 -27 -39 -1 -49 4 -75 33 -27 30 -30 39 -26 80 6 53
59 151 132 244 64 81 165 168 191 165 10 -2 46 -34 78 -73z m182 -80 c14 -13
25 -36 25 -50 0 -23 -2 -24 -20 -15 -11 6 -20 17 -20 24 0 8 -6 16 -14 19 -7
3 -16 15 -19 26 -7 29 18 27 48 -4z"/>
<path d="M3388 3752 c-136 -108 -217 -225 -233 -333 -9 -58 13 -115 50 -129
14 -5 25 -16 25 -24 0 -25 49 -74 80 -81 17 -4 33 -12 37 -19 36 -61 161 -28
344 90 84 54 179 143 179 169 0 13 -6 9 -23 -16 -48 -72 -247 -209 -354 -243
-55 -18 -124 -18 -130 0 -2 6 20 21 49 35 78 36 279 172 348 236 l61 56 26
-24 c21 -20 25 -21 20 -6 -4 10 -7 34 -7 53 0 34 -15 55 -58 84 -28 18 -22 45
11 54 12 3 30 11 39 18 15 12 15 16 -11 46 l-28 33 -31 -26 c-16 -14 -43 -28
-59 -31 -23 -4 -34 1 -62 31 -35 38 -67 55 -102 55 -11 0 -27 7 -35 15 -28 27
-61 17 -136 -43z m136 26 c23 -32 20 -53 -10 -69 -77 -41 -264 -288 -281 -370
-7 -38 -20 -45 -44 -23 -14 13 -19 30 -19 70 0 124 85 251 250 375 59 45 82
48 104 17z m105 -37 c14 -9 27 -23 29 -29 6 -18 -43 -15 -58 3 -7 8 -21 15
-31 15 -19 0 -26 20 -12 33 9 10 43 -1 72 -22z m206 -33 c15 -22 14 -24 -24
-42 -42 -21 -59 -55 -46 -96 6 -20 6 -20 -29 1 -19 11 -45 34 -58 50 -13 17
-29 37 -35 44 -7 8 -13 15 -13 17 0 2 29 3 65 3 54 0 68 4 87 23 12 12 26 22
30 22 4 0 14 -10 23 -22z m-240 -6 c11 -9 39 -42 62 -73 30 -39 58 -63 93 -79
29 -14 50 -30 50 -39 0 -36 -62 -89 -262 -223 -149 -100 -209 -115 -267 -68
-39 33 -40 95 -1 171 17 35 43 79 56 97 14 17 23 32 20 32 -4 0 2 8 12 18 9
10 31 33 47 52 51 58 136 130 154 130 9 -1 25 -8 36 -18z m245 -153 c15 -26
12 -59 -3 -53 -17 6 -68 85 -61 95 7 11 52 -18 64 -42z"/>
<path d="M1902 3655 c-18 -8 -35 -21 -38 -30 -4 -10 -19 -15 -43 -15 -84 0
-160 -99 -122 -159 7 -10 1 -23 -20 -43 -41 -41 -39 -81 5 -123 25 -24 33 -38
29 -56 -7 -37 30 -78 79 -86 46 -7 92 -49 135 -120 30 -51 39 -52 143 -15 l75
27 -3 70 c-4 89 4 135 24 135 8 0 26 11 40 25 21 21 25 34 24 78 -1 28 2 69 6
90 7 43 -12 81 -52 99 -15 7 -24 20 -24 33 0 57 -78 102 -124 72 -21 -14 -25
-14 -42 3 -28 26 -55 31 -92 15z m82 -21 c9 -8 16 -19 16 -24 0 -4 16 0 36 10
58 30 114 0 114 -62 0 -16 9 -27 28 -36 48 -21 67 -87 38 -128 -10 -13 -11
-25 -5 -35 15 -24 10 -68 -11 -89 -22 -22 -79 -27 -97 -9 -8 8 -17 7 -34 -5
-32 -22 -55 -20 -73 6 l-16 22 0 -26 c0 -29 -32 -58 -62 -58 -10 0 -27 9 -39
21 -11 11 -23 19 -25 16 -2 -2 2 -10 11 -17 24 -20 18 -36 -19 -54 -40 -19
-47 -19 -80 -5 -39 18 -56 99 -21 99 18 0 74 49 58 50 -7 0 -13 -4 -13 -8 0
-17 -45 -29 -76 -20 -21 5 -36 18 -44 37 -15 38 -6 65 30 91 28 20 29 22 14
45 -37 56 23 138 101 141 36 1 50 7 66 28 24 30 78 36 103 10z m120 -392 c7
-12 -13 -82 -23 -82 -10 0 -61 50 -61 59 0 8 47 28 67 30 6 1 14 -3 17 -7z
m-49 -81 c16 -11 30 -19 32 -17 2 2 13 26 23 52 l19 49 2 -82 c1 -46 3 -91 3
-100 1 -12 -17 -24 -58 -40 -78 -30 -126 -39 -126 -23 0 15 -55 95 -86 123
l-24 23 27 20 c16 12 45 23 66 27 l37 6 0 -38 c0 -21 -3 -41 -7 -44 -7 -8 -52
18 -70 41 -7 9 -13 11 -13 5 0 -15 58 -63 75 -63 18 0 25 23 25 79 0 60 8 69
31 33 9 -16 29 -39 44 -51z"/>
<path d="M1891 3501 c-15 -15 -20 -32 -19 -58 l1 -38 4 37 c7 64 65 88 110 46
20 -18 23 -19 23 -5 0 35 76 13 80 -23 5 -35 -2 -50 -27 -64 -16 -8 -22 -15
-15 -16 17 0 62 45 62 63 0 8 -9 26 -21 41 -17 22 -29 27 -62 26 -23 0 -58 2
-79 6 -29 5 -40 2 -57 -15z"/>
<path d="M5004 3635 c-15 -16 -36 -25 -55 -25 -82 0 -157 -100 -120 -159 7
-10 1 -23 -20 -43 -18 -19 -29 -40 -29 -57 0 -31 34 -81 54 -81 9 0 13 -13 12
-41 -1 -33 5 -46 27 -65 16 -13 41 -24 56 -24 36 0 91 -49 121 -108 13 -24 30
-46 38 -49 8 -4 53 7 99 22 95 33 100 41 84 120 l-10 50 2 -65 2 -65 -75 -27
c-41 -15 -82 -27 -91 -27 -9 -1 -23 15 -33 38 -10 21 -35 56 -56 77 -21 22
-36 42 -34 45 2 4 -14 6 -35 5 -51 -1 -81 25 -81 70 0 27 5 35 24 40 14 3 32
14 42 25 22 24 9 25 -21 1 -44 -34 -115 -3 -115 50 0 25 21 68 34 68 6 0 17 4
25 9 11 7 10 13 -4 34 -37 57 19 138 99 143 31 2 51 10 69 28 16 16 37 26 56
26 29 0 61 -22 61 -42 0 -5 15 -1 33 9 17 11 38 19 45 17 6 -1 17 -2 22 -3 22
-2 50 -43 50 -71 0 -19 5 -30 14 -30 20 0 66 -58 66 -83 0 -12 -6 -34 -14 -48
-8 -16 -10 -32 -5 -40 16 -25 9 -68 -13 -89 -24 -22 -68 -26 -97 -8 -15 9 -22
8 -36 -5 -23 -23 -51 -21 -69 5 l-16 22 0 -26 c0 -29 -32 -58 -63 -58 -10 0
-29 11 -42 25 -14 13 -25 20 -25 15 0 -6 8 -18 18 -28 17 -17 17 -20 3 -29
-14 -9 -11 -14 18 -39 74 -63 91 -59 91 24 0 32 3 62 6 65 4 3 19 -11 35 -33
16 -21 37 -44 48 -50 18 -9 22 -5 38 39 18 53 33 60 27 14 -3 -26 -3 -25 8 5
6 17 16 32 23 32 7 0 24 10 39 21 24 19 27 28 26 78 0 31 2 74 5 97 6 34 3 45
-20 72 -15 18 -33 32 -41 32 -8 0 -14 10 -14 24 0 31 -33 72 -66 80 -15 4 -37
1 -54 -8 -26 -13 -30 -12 -46 5 -26 29 -88 25 -120 -6z m236 -392 c0 -20 -22
-83 -29 -83 -9 0 -66 59 -60 63 27 20 89 34 89 20z m-140 -81 c0 -21 -3 -42
-6 -45 -9 -9 -44 11 -71 39 l-22 24 22 5 c53 11 62 13 70 14 4 0 7 -16 7 -37z"/>
<path d="M1688 3634 c-32 -17 -58 -62 -58 -99 0 -39 16 -30 17 11 1 42 33 80
77 93 20 6 24 9 11 10 -11 0 -32 -6 -47 -15z"/>
<path d="M4802 3622 c-31 -29 -51 -87 -35 -103 5 -5 9 5 10 27 1 42 33 80 77
93 30 9 30 9 5 10 -16 1 -39 -10 -57 -27z"/>
<path d="M4562 3555 c-7 -14 -12 -29 -12 -33 1 -10 40 38 40 49 0 18 -17 8
-28 -16z"/>
<path d="M5028 3508 c-23 -18 -37 -59 -27 -83 6 -16 8 -14 8 13 1 37 31 72 63
72 12 0 32 -10 46 -22 16 -16 23 -18 20 -8 -2 10 7 16 29 18 27 3 35 -1 44
-22 15 -33 5 -70 -23 -84 -16 -7 -18 -11 -7 -11 35 -2 64 57 47 94 -12 27 -33
36 -83 35 -16 -1 -46 2 -65 5 -22 4 -41 2 -52 -7z"/>
<path d="M810 3189 c-19 -12 -66 -59 -105 -106 -118 -142 -237 -262 -309 -311
-84 -57 -96 -74 -74 -99 10 -10 20 -38 24 -61 4 -23 12 -43 18 -44 6 0 16 -2
22 -2 6 -1 37 -27 68 -58 57 -56 59 -57 112 -56 46 1 57 -2 81 -26 22 -22 33
-26 58 -22 64 13 121 14 149 3 26 -9 31 -8 48 13 11 14 30 25 41 26 41 3 57
15 57 45 0 32 25 51 57 43 28 -8 52 28 46 69 -2 18 -13 49 -24 70 -10 21 -19
52 -19 70 0 18 -13 71 -29 117 -16 47 -35 123 -42 170 -23 163 -82 216 -179
159z m101 -6 c35 -21 55 -72 64 -160 3 -35 15 -89 26 -120 43 -119 54 -171 44
-199 -13 -35 -33 -42 -37 -12 -2 15 -11 24 -27 26 -13 2 -26 12 -28 23 -4 14
-14 19 -39 19 -32 0 -33 1 -23 26 7 21 6 31 -7 45 -14 16 -15 24 -6 44 7 14
19 28 27 31 29 12 9 218 -24 238 -12 8 -86 -59 -134 -122 -81 -106 -100 -147
-103 -224 -1 -38 -5 -72 -8 -75 -3 -3 -16 -6 -28 -7 -19 -1 -23 -7 -24 -37 0
-20 -8 -46 -17 -60 -9 -13 -17 -32 -17 -42 0 -15 -5 -17 -28 -12 -20 4 -36 0
-54 -14 l-26 -21 -16 25 c-10 16 -26 25 -41 25 -22 0 -25 5 -25 33 0 18 -7 43
-16 55 -22 32 -11 54 43 82 55 29 238 206 338 329 66 80 114 121 143 121 8 0
27 -8 43 -17z m-39 -197 c0 -50 -1 -107 -2 -126 -1 -19 1 -64 4 -99 l6 -64
-51 -64 c-28 -35 -49 -66 -47 -68 3 -3 22 17 44 45 21 27 42 49 45 50 3 0 4
-37 3 -82 -3 -68 -1 -76 6 -43 5 22 9 77 9 123 1 45 5 82 10 82 4 0 16 -30 26
-67 10 -38 22 -75 26 -83 16 -29 10 15 -11 82 -23 75 -22 68 -10 68 6 0 10 -7
10 -15 0 -9 12 -18 30 -21 20 -4 30 -13 30 -24 0 -25 26 -32 45 -13 9 8 17 14
19 12 9 -12 26 -76 26 -100 0 -26 -3 -29 -33 -29 -44 0 -71 -21 -72 -56 -1
-25 -6 -29 -33 -32 -19 -2 -39 -13 -52 -29 -18 -23 -23 -25 -44 -14 -12 7 -38
11 -57 9 -32 -3 -34 -1 -34 28 0 18 -9 42 -20 54 -26 29 -23 134 5 165 55 61
90 190 89 328 -1 92 7 122 23 92 6 -9 10 -58 10 -109z m34 16 c5 -51 4 -72 -5
-72 -7 0 -11 21 -11 58 0 31 -3 68 -6 82 -5 18 -4 22 4 15 6 -6 14 -43 18 -83z
m-76 64 c0 -7 -7 -19 -15 -26 -8 -7 -32 -46 -52 -88 -21 -42 -50 -89 -66 -106
-29 -31 -29 -49 -1 -25 16 13 17 11 11 -18 -4 -19 -2 -33 3 -33 6 0 10 6 10
13 0 30 32 117 40 112 6 -4 10 -26 10 -51 0 -24 4 -44 10 -44 11 0 3 85 -10
110 -9 17 34 110 51 110 14 0 3 -121 -20 -204 -15 -56 -19 -61 -46 -64 -35 -4
-65 -28 -65 -52 0 -28 -26 -54 -58 -56 -26 -2 -31 2 -34 27 -4 22 -1 29 12 29
35 0 51 34 49 102 -2 61 1 69 41 129 52 77 111 149 122 149 4 0 8 -6 8 -14z
m-67 -332 c6 -7 -21 -54 -38 -66 -5 -4 -10 -42 -11 -85 0 -76 -1 -78 -26 -81
-13 -2 -31 4 -38 12 -7 9 -24 16 -39 16 -41 0 -55 14 -47 46 11 43 25 54 64
54 36 0 72 29 72 58 0 31 45 64 63 46z m-209 -199 c11 -8 31 -15 46 -15 14 0
34 -9 44 -21 17 -21 23 -21 86 -7 26 5 24 -44 -1 -63 -26 -19 -55 -13 -89 21
-15 15 -33 20 -75 20 -49 0 -59 4 -80 28 -17 19 -20 30 -13 40 14 16 58 15 82
-3z"/>
<path d="M667 2990 c-87 -92 -217 -261 -217 -282 0 -7 9 -2 21 12 l20 25 -7
-39 c-4 -25 -3 -37 3 -33 6 4 13 29 17 56 4 27 15 60 26 73 l19 23 2 -22 c2
-37 4 -41 12 -50 5 -4 7 18 5 50 -1 31 0 57 3 57 4 0 23 21 43 48 20 26 60 71
88 100 28 29 49 55 46 58 -3 2 -39 -32 -81 -76z"/>
<path d="M3945 3191 c-16 -10 -55 -47 -85 -81 -197 -227 -248 -277 -351 -349
-67 -47 -78 -64 -57 -88 10 -10 20 -37 24 -60 6 -39 25 -60 44 -48 5 3 15 -3
22 -13 7 -11 34 -37 61 -60 41 -35 54 -41 91 -40 33 0 53 -6 78 -26 34 -26 67
-33 82 -18 12 11 98 11 129 0 23 -9 32 -7 52 12 13 12 39 25 57 29 27 6 34 12
36 36 4 37 28 56 58 49 16 -4 27 1 38 18 18 28 14 65 -14 124 -11 22 -20 54
-20 71 0 18 -13 68 -30 112 -16 44 -34 120 -41 168 -6 48 -20 105 -31 126 -29
57 -87 73 -143 38z m108 -17 c31 -30 43 -67 52 -151 3 -35 15 -89 26 -120 43
-119 54 -171 44 -199 -13 -35 -33 -42 -37 -12 -2 17 -11 24 -30 26 -20 2 -28
9 -28 23 0 15 -7 19 -35 19 -38 0 -40 2 -24 31 8 16 7 25 -6 39 -20 22 -13 55
16 70 16 9 19 22 19 74 0 60 -22 160 -38 170 -9 5 -135 -104 -129 -111 3 -2
-6 -16 -19 -30 -14 -15 -39 -52 -56 -82 -26 -45 -32 -68 -33 -118 -1 -55 -15
-94 -33 -91 -27 3 -33 -5 -31 -35 2 -19 -4 -43 -14 -57 -9 -13 -17 -33 -17
-42 0 -15 -5 -17 -26 -12 -18 5 -34 0 -53 -14 -27 -20 -28 -20 -44 -2 -8 10
-13 21 -10 24 4 3 -8 6 -25 6 -29 0 -32 3 -32 30 0 43 0 43 -17 62 -22 25 -9
50 43 77 55 30 221 190 326 316 86 103 105 121 133 128 40 10 53 7 78 -19z
m-46 -176 c7 -66 6 -91 -4 -104 -14 -19 -17 -56 -6 -68 4 -4 8 -34 9 -68 3
-58 1 -62 -47 -123 -27 -34 -49 -66 -49 -70 0 -13 39 27 61 62 11 18 24 33 27
33 4 0 6 -37 5 -82 -2 -69 0 -76 7 -43 5 22 9 78 9 125 1 98 10 96 41 -10 13
-41 25 -69 27 -63 4 11 -16 92 -33 138 -3 8 -1 15 4 15 6 0 14 -9 17 -20 4
-13 15 -20 31 -20 17 0 24 -6 24 -19 0 -24 25 -34 40 -15 19 22 26 17 39 -24
21 -62 12 -86 -32 -93 -44 -7 -59 -19 -63 -51 -1 -13 -3 -26 -3 -30 -1 -5 -14
-8 -31 -8 -16 0 -30 -5 -30 -12 0 -6 -3 -8 -7 -5 -3 4 -13 -2 -20 -13 -12 -16
-18 -18 -34 -9 -11 6 -37 9 -57 7 -35 -3 -37 -1 -35 25 1 15 -2 27 -8 27 -5 0
-9 -9 -9 -20 0 -11 -12 -26 -28 -34 -27 -14 -31 -13 -73 15 -33 22 -56 29 -91
29 -50 0 -92 29 -86 60 4 21 61 25 78 6 7 -9 27 -16 44 -16 20 0 38 -8 50 -21
14 -17 24 -20 49 -14 18 4 40 7 51 7 18 -1 18 0 -2 21 -29 33 -20 128 19 177
45 57 70 150 76 280 2 63 7 122 9 130 10 29 22 -11 31 -102z m30 -3 c4 -46 2
-65 -6 -65 -7 0 -11 21 -11 58 0 31 -3 68 -6 82 -5 21 -4 22 6 8 6 -10 13 -47
17 -83z m-77 71 c0 -8 -5 -18 -10 -21 -16 -10 -58 -79 -77 -127 -9 -24 -30
-56 -45 -72 -16 -16 -26 -31 -23 -34 3 -3 12 3 21 14 14 18 15 17 10 -20 -7
-54 8 -33 29 38 18 65 35 62 35 -6 0 -21 5 -38 11 -38 11 0 3 83 -12 110 -5
10 2 32 18 62 45 83 53 59 28 -85 -20 -113 -31 -137 -65 -137 -30 0 -58 -25
-63 -57 -8 -55 -70 -74 -87 -27 -13 34 -13 34 13 34 32 0 47 36 47 110 0 64
13 90 108 213 45 57 62 69 62 43z m-66 -335 c4 -5 -6 -24 -21 -41 -23 -28 -27
-41 -28 -108 -2 -74 -3 -77 -27 -80 -14 -2 -32 4 -40 12 -8 8 -30 16 -49 18
-31 3 -34 5 -32 36 2 45 19 62 63 62 38 0 78 29 66 48 -3 5 4 21 15 36 21 26
43 33 53 17z"/>
<path d="M3814 3007 c-74 -75 -137 -152 -192 -232 -45 -65 -56 -93 -21 -54
l20 24 -6 -37 c-3 -21 -2 -38 3 -38 5 0 12 23 15 51 7 59 34 110 47 89 5 -7 7
-21 5 -31 -2 -10 0 -21 6 -24 5 -4 9 16 9 46 0 50 21 93 64 135 51 48 119 124
115 128 -3 3 -32 -23 -65 -57z"/>
<path d="M1340 3131 c0 -6 -7 -11 -15 -11 -8 0 -25 -6 -38 -12 -12 -7 -23 -14
-25 -15 -2 -1 2 -11 8 -23 10 -18 8 -29 -12 -66 l-23 -44 79 -312 c44 -172 86
-330 94 -351 28 -72 114 -105 182 -70 43 22 80 76 80 116 0 26 -100 429 -152
611 -21 75 -51 111 -99 121 -25 6 -29 11 -27 33 3 23 -1 27 -24 30 -16 2 -28
-1 -28 -7z m40 -29 c0 -12 -13 -23 -37 -32 -21 -8 -42 -17 -46 -19 -5 -2 -7 7
-5 20 2 16 11 25 26 27 12 2 22 8 22 13 0 5 9 9 20 9 13 0 20 -7 20 -18z m72
-54 c33 -16 32 -13 147 -461 54 -207 60 -243 51 -272 -6 -18 -19 -40 -29 -49
-18 -17 -19 -15 -20 40 0 66 -19 164 -30 164 -5 0 -2 -28 6 -61 8 -34 13 -87
11 -118 -3 -52 -5 -56 -29 -59 -34 -4 -73 36 -95 98 -10 27 -21 47 -26 44 -10
-6 15 -69 42 -106 27 -37 25 -41 -10 -23 -17 9 -37 30 -45 48 -22 47 -165 619
-165 656 0 34 15 71 29 71 4 0 11 -37 14 -82 6 -87 60 -316 79 -333 8 -7 9 -4
4 10 -23 63 -67 271 -73 339 -5 68 -4 81 11 92 20 14 102 16 128 2z"/>
<path d="M1400 3047 c0 -4 12 -30 26 -58 26 -53 74 -224 96 -344 7 -38 14 -61
16 -49 9 58 -80 385 -118 434 -11 14 -20 21 -20 17z"/>
<path d="M4464 3126 c-3 -8 -13 -12 -25 -9 -10 3 -19 0 -19 -6 0 -6 -7 -11
-15 -11 -18 0 -19 -5 -3 -29 9 -15 7 -28 -12 -66 l-23 -49 82 -325 c45 -179
90 -339 100 -356 18 -32 72 -64 108 -65 68 -1 143 66 143 127 0 46 -162 666
-181 694 -11 15 -36 34 -58 42 -32 13 -38 20 -36 41 3 23 -1 26 -26 26 -16 0
-32 -6 -35 -14z m46 -26 c0 -19 -76 -54 -86 -39 -11 19 6 47 26 42 12 -3 22 1
26 10 7 20 34 10 34 -13z m83 -64 c23 -18 37 -63 112 -354 76 -293 85 -338 75
-367 -6 -18 -18 -40 -28 -48 -16 -14 -17 -12 -19 40 -2 62 -24 174 -30 156 -2
-6 1 -38 6 -69 12 -64 14 -124 5 -148 -18 -47 -102 15 -125 94 -7 22 -16 40
-21 40 -4 0 -8 -2 -8 -5 0 -13 49 -113 59 -119 6 -4 11 -12 11 -17 0 -20 -62
24 -75 54 -22 49 -165 621 -165 660 0 19 8 45 19 58 18 22 18 22 24 -67 5 -93
58 -320 78 -338 9 -8 10 -6 5 9 -23 63 -67 271 -73 339 -7 93 0 104 76 104 35
0 56 -6 74 -22z"/>
<path d="M4530 3048 c0 -3 11 -28 24 -55 30 -60 59 -158 86 -293 12 -57 23
-107 26 -109 20 -20 -31 221 -72 340 -22 64 -63 139 -64 117z"/>
<path d="M2722 2999 c-124 -62 -130 -231 -11 -298 57 -32 125 -28 207 13 66
33 176 74 260 96 26 6 48 20 59 36 23 36 19 93 -11 122 -23 23 -31 25 -172 28
-81 2 -164 9 -183 14 -56 15 -102 12 -149 -11z m138 1 c28 -9 214 -20 317 -20
53 0 86 -96 46 -133 -10 -8 -67 -31 -128 -51 -60 -19 -141 -51 -180 -71 -79
-39 -136 -45 -191 -19 -126 60 -113 242 21 289 49 17 70 18 115 5z"/>
<path d="M2739 2936 c-14 -9 -34 -26 -43 -40 -17 -27 -22 -91 -7 -100 5 -4 7
10 4 31 -6 49 23 88 77 104 32 10 44 9 76 -7 95 -47 50 -164 -64 -164 -21 0
-43 5 -50 12 -6 6 -15 9 -18 5 -9 -9 55 -36 75 -32 9 2 24 4 35 4 10 1 33 16
52 35 43 43 45 83 6 127 -33 37 -100 49 -143 25z"/>
<path d="M2826 2819 c-10 -6 -34 -9 -52 -6 -20 4 -32 2 -29 -4 9 -14 79 -11
101 6 22 17 8 20 -20 4z"/>
<path d="M5850 2997 c-24 -12 -48 -32 -54 -42 -6 -11 -14 -22 -18 -25 -12 -9
-28 -60 -28 -87 0 -46 37 -106 82 -136 61 -39 126 -38 215 7 37 19 101 44 140
57 40 13 73 27 73 31 0 12 -125 -31 -209 -73 -74 -36 -91 -41 -136 -37 -66 6
-111 37 -137 95 -34 78 4 168 86 204 46 20 56 20 120 10 39 -7 118 -14 176
-16 l105 -4 -90 9 c-49 5 -120 14 -158 20 -97 14 -119 13 -167 -13z"/>
<path d="M0 2991 c0 -7 6 -11 13 -10 56 7 97 -25 97 -76 0 -43 -24 -73 -71
-85 -23 -6 -39 -14 -36 -17 10 -10 82 19 99 41 25 30 23 89 -4 121 -25 28 -98
47 -98 26z"/>
<path d="M2385 2948 c-2 -7 -9 -31 -16 -53 l-12 -40 -17 40 -17 40 -5 -107
c-3 -64 -10 -113 -17 -122 -7 -8 -34 -22 -61 -31 -27 -9 -60 -25 -74 -36 -31
-24 -41 -19 -61 27 -15 37 -51 47 -62 18 -3 -8 -31 -27 -62 -40 -97 -43 -131
-89 -131 -178 0 -50 3 -59 38 -96 22 -22 46 -40 55 -40 10 0 17 -4 17 -9 0 -5
9 -7 20 -4 13 3 20 0 20 -8 0 -11 3 -11 11 1 8 11 12 12 16 2 5 -13 23 -7 23
9 0 5 -17 9 -37 10 -96 2 -153 54 -153 140 0 26 5 60 12 74 11 25 94 87 134
99 12 4 29 15 39 26 24 26 32 25 49 -8 8 -15 31 -47 52 -71 22 -24 42 -51 46
-60 14 -34 7 -88 -20 -136 -22 -40 -36 -53 -72 -67 -25 -9 -38 -17 -30 -17 9
-1 33 8 53 18 37 19 77 18 77 -1 0 -5 9 -6 20 -3 11 3 20 3 20 -2 0 -4 15 -7
32 -6 18 1 47 2 65 2 66 2 133 93 133 180 0 49 -17 84 -76 154 -13 16 -24 41
-24 55 0 26 64 148 97 185 9 9 14 19 12 22 -7 6 -70 -46 -65 -54 3 -4 -1 -8
-9 -8 -10 0 -12 13 -8 54 5 48 -2 72 -12 41z m-36 -168 c1 -78 14 -113 62
-170 56 -66 63 -123 25 -198 -35 -69 -69 -87 -153 -78 -35 4 -74 11 -88 16
l-24 9 21 47 c26 60 21 121 -16 168 -14 19 -26 38 -26 41 0 3 38 24 84 45 93
43 95 47 97 159 1 74 17 39 18 -39z m22 27 c-13 -13 -14 5 -3 43 l7 25 3 -29
c2 -16 -1 -33 -7 -39z m19 -17 c-12 -23 -24 -40 -27 -37 -3 3 5 24 18 46 29
53 37 46 9 -9z"/>
<path d="M2238 2629 c-10 -5 -23 -20 -29 -32 l-12 -22 24 21 c13 12 33 26 44
32 14 8 15 11 5 11 -8 0 -23 -4 -32 -10z"/>
<path d="M2365 2580 c39 -43 28 -150 -19 -189 -9 -8 -16 -18 -16 -25 0 -13 42
31 59 61 25 47 3 173 -31 173 -6 0 -3 -9 7 -20z"/>
<path d="M5517 2953 c-3 -5 -10 -28 -17 -52 l-12 -45 -18 40 -18 39 0 -85 c1
-72 2 -78 8 -35 5 42 7 46 13 25 4 -14 8 -55 10 -92 3 -60 7 -72 44 -120 22
-29 46 -63 52 -75 29 -57 -5 -168 -63 -205 -26 -16 -42 -18 -98 -14 -37 3 -78
10 -92 16 l-26 9 21 48 c27 62 21 120 -16 168 l-26 36 23 19 c13 10 49 28 80
40 32 11 59 24 61 28 12 20 16 62 7 62 -5 0 -10 -11 -10 -24 0 -30 -12 -39
-80 -65 -30 -12 -65 -29 -78 -39 l-22 -17 31 -39 c43 -52 49 -113 16 -176 -38
-75 -110 -94 -219 -60 -17 6 -28 5 -28 -1 0 -5 7 -9 15 -9 8 0 15 -4 15 -9 0
-5 9 -7 20 -4 13 3 20 0 20 -8 0 -11 3 -11 11 1 7 10 12 11 15 4 6 -15 92 1
114 21 15 13 60 11 60 -4 0 -3 16 -7 36 -8 19 -1 42 -7 50 -14 10 -8 14 -8 14
0 0 6 15 11 33 11 68 0 137 88 137 176 0 52 -16 85 -76 157 -13 16 -24 40 -24
54 0 26 44 112 87 169 31 42 29 49 -7 23 -16 -12 -26 -27 -23 -33 3 -6 3 -8
-2 -4 -4 4 -14 3 -20 -2 -10 -8 -11 2 -8 45 4 51 1 66 -10 48z m-16 -146 c-13
-13 -14 5 -3 43 l7 25 3 -29 c2 -16 -1 -33 -7 -39z m23 -11 c-10 -20 -22 -36
-26 -36 -5 0 1 18 13 40 28 49 36 46 13 -4z"/>
<path d="M5875 2935 c-43 -22 -65 -52 -65 -89 0 -68 69 -115 141 -96 98 27
120 123 40 177 -40 27 -74 29 -116 8z m100 -11 c19 -9 38 -28 46 -45 37 -90
-98 -163 -171 -94 -49 47 -33 111 34 141 40 17 51 17 91 -2z"/>
<path d="M5966 2824 c-18 -10 -41 -14 -63 -11 -20 4 -31 2 -28 -4 11 -17 82
-10 106 11 29 23 24 25 -15 4z"/>
<path d="M40 2705 c92 -29 145 -114 119 -193 -16 -51 -65 -100 -119 -118 l-45
-14 38 4 c82 10 155 105 144 188 -9 70 -95 149 -159 147 -15 0 -7 -5 22 -14z"/>
<path d="M3030 2692 c-58 -30 -196 -83 -266 -101 -83 -22 -115 -105 -60 -159
26 -26 31 -27 179 -34 83 -3 184 -9 222 -13 62 -5 75 -3 110 17 46 27 82 76
91 124 8 42 1 71 -28 114 -37 54 -71 73 -135 77 -49 3 -67 -1 -113 -25z m177
-3 c98 -47 118 -167 42 -245 -47 -49 -94 -61 -180 -46 -38 7 -124 12 -190 12
-155 0 -189 15 -189 86 0 56 9 62 160 109 47 15 112 40 145 57 108 54 146 59
212 27z"/>
<path d="M3100 2670 c0 -5 5 -10 10 -10 6 0 10 5 10 10 0 6 -4 10 -10 10 -5 0
-10 -4 -10 -10z"/>
<path d="M3050 2590 c0 -5 5 -10 10 -10 6 0 10 5 10 10 0 6 -4 10 -10 10 -5 0
-10 -4 -10 -10z"/>
<path d="M3040 2480 c0 -5 5 -10 10 -10 6 0 10 5 10 10 0 6 -4 10 -10 10 -5 0
-10 -4 -10 -10z"/>
<path d="M3200 2459 c0 -5 5 -7 10 -4 6 3 10 8 10 11 0 2 -4 4 -10 4 -5 0 -10
-5 -10 -11z"/>
<path d="M6125 2675 c-49 -24 -130 -55 -180 -69 -106 -31 -138 -57 -138 -111
0 -26 7 -44 27 -63 26 -26 30 -27 184 -34 86 -3 177 -9 202 -12 37 -5 34 -3
-15 9 -35 8 -113 14 -188 15 -166 0 -197 14 -197 90 0 44 28 66 125 95 50 15
119 41 155 57 36 17 88 39 115 49 36 13 43 18 25 18 -14 0 -65 -19 -115 -44z"/>
<path d="M5174 2685 c-4 -9 -34 -29 -68 -45 -95 -44 -126 -86 -126 -174 0 -50
4 -60 35 -94 19 -20 35 -31 35 -24 0 6 -5 12 -10 12 -22 0 -50 65 -50 117 0
47 4 58 36 93 20 22 57 49 83 61 25 11 56 30 69 42 26 24 22 26 59 -30 10 -13
9 -9 0 17 -15 39 -52 54 -63 25z"/>
<path d="M6230 2670 c0 -5 5 -10 11 -10 5 0 7 5 4 10 -3 6 -8 10 -11 10 -2 0
-4 -4 -4 -10z"/>
<path d="M5358 2619 c-16 -11 -28 -26 -28 -32 0 -6 12 1 28 15 15 14 34 28 42
31 13 5 13 5 0 6 -8 0 -27 -9 -42 -20z"/>
<path d="M1994 2598 c-66 -46 -87 -78 -87 -133 0 -54 32 -96 72 -94 26 2 26 2
2 6 -69 13 -86 109 -29 171 13 13 43 37 68 53 25 16 40 29 34 29 -7 0 -33 -15
-60 -32z"/>
<path d="M5128 2601 c-78 -50 -109 -114 -84 -175 15 -36 42 -57 73 -55 10 0 3
5 -14 10 -39 11 -55 39 -55 92 1 46 30 82 101 128 25 16 40 29 35 29 -6 0 -31
-13 -56 -29z"/>
<path d="M2070 2605 c0 -4 11 -20 25 -36 42 -51 53 -128 22 -167 -5 -7 -7 -15
-4 -19 4 -3 14 11 23 32 17 41 13 89 -11 135 -14 27 -55 68 -55 55z"/>
<path d="M5200 2605 c0 -5 11 -20 24 -34 63 -68 52 -176 -19 -194 -16 -4 -15
-5 6 -6 59 -2 86 87 50 162 -20 42 -61 90 -61 72z"/>
<path d="M5494 2581 c20 -22 32 -87 22 -125 -3 -13 -18 -38 -32 -55 -14 -17
-22 -31 -17 -31 22 0 57 66 61 115 4 54 -17 115 -40 115 -6 0 -3 -9 6 -19z"/>
<path d="M6180 2590 c0 -5 5 -10 10 -10 6 0 10 5 10 10 0 6 -4 10 -10 10 -5 0
-10 -4 -10 -10z"/>
<path d="M2001 2534 c-38 -59 -39 -88 -6 -110 14 -9 28 -14 32 -11 3 4 -7 11
-22 17 -24 9 -27 14 -21 42 3 17 18 47 32 65 14 19 24 37 21 40 -4 3 -20 -16
-36 -43z"/>
<path d="M5136 2543 c-14 -21 -28 -52 -32 -70 -5 -26 -2 -34 20 -48 15 -10 30
-15 33 -11 4 4 -3 9 -15 12 -41 11 -36 72 10 121 12 13 19 26 15 29 -3 3 -17
-12 -31 -33z"/>
<path d="M6170 2480 c0 -5 5 -10 10 -10 6 0 10 5 10 10 0 6 -4 10 -10 10 -5 0
-10 -4 -10 -10z"/>
<path d="M2068 2373 c6 -2 18 -2 25 0 6 3 1 5 -13 5 -14 0 -19 -2 -12 -5z"/>
<path d="M354 2225 c-17 -8 -36 -21 -43 -29 -8 -9 -21 -16 -30 -16 -28 0 -77
-37 -90 -68 -17 -40 -1 -98 44 -156 40 -53 58 -86 85 -160 23 -60 54 -82 76
-52 11 16 13 16 28 0 16 -15 18 -15 37 2 16 15 22 16 29 5 15 -25 39 -3 54 50
9 29 37 97 62 150 25 54 48 113 51 133 11 72 -35 126 -109 126 -18 0 -42 7
-52 15 -24 18 -100 18 -142 0z m146 -14 c19 -11 34 -21 32 -23 -2 -1 2 -16 8
-33 15 -38 7 -93 -30 -220 -16 -55 -34 -119 -40 -142 -6 -24 -17 -43 -24 -43
-24 0 -23 -3 -122 235 -43 103 -46 165 -7 201 48 45 126 55 183 25z m121 -37
c9 -8 20 -27 24 -41 8 -32 -19 -124 -55 -188 -15 -27 -36 -77 -46 -110 -23
-79 -32 -91 -53 -71 -14 14 -13 24 8 93 59 196 67 253 45 322 -7 23 -6 24 26
17 19 -3 41 -13 51 -22z m-282 -256 c51 -118 61 -161 39 -174 -15 -9 -37 23
-60 89 -10 28 -31 68 -48 88 -50 63 -72 113 -68 160 3 37 8 47 38 67 l35 23 6
-68 c5 -50 20 -98 58 -185z"/>
<path d="M344 2124 c-10 -40 35 -208 51 -192 3 3 -4 25 -15 51 -30 67 -36 129
-15 150 14 15 14 17 1 17 -9 0 -19 -12 -22 -26z"/>
<path d="M3494 2229 c-17 -5 -39 -18 -49 -29 -10 -11 -24 -20 -32 -20 -28 0
-73 -31 -88 -60 -23 -44 -11 -89 49 -179 29 -43 62 -105 74 -139 24 -66 55
-89 77 -59 11 15 13 15 28 0 15 -15 18 -15 34 -1 13 12 23 14 36 7 24 -14 35
-4 48 44 6 23 33 89 59 147 27 58 52 122 55 143 13 71 -32 127 -103 127 -17 0
-43 7 -58 15 -32 16 -82 18 -130 4z m121 -11 c14 -6 35 -27 46 -45 26 -42 22
-92 -21 -238 -16 -55 -34 -119 -40 -142 -20 -78 -35 -68 -90 57 -98 223 -110
284 -69 329 43 46 121 64 174 39z m136 -44 c40 -37 33 -95 -31 -230 -21 -44
-44 -100 -51 -125 -7 -24 -18 -50 -25 -58 -11 -12 -15 -11 -24 10 -9 19 -5 43
20 124 43 140 57 226 42 260 -7 14 -12 31 -12 37 0 15 59 2 81 -18z m-282
-257 c50 -114 61 -160 41 -172 -18 -11 -38 14 -56 72 -10 31 -33 76 -52 101
-93 122 -99 211 -17 242 18 7 21 2 26 -60 5 -51 20 -98 58 -183z"/>
<path d="M3486 2145 c-9 -9 -16 -32 -16 -50 0 -36 35 -143 53 -160 7 -7 7 -4
2 10 -51 134 -57 177 -28 194 10 5 15 12 12 16 -4 3 -14 -1 -23 -10z"/>
<path d="M3004 2171 c-16 -15 -43 -45 -61 -64 l-31 -37 -48 22 c-41 18 -55 19
-88 10 -26 -7 -48 -7 -65 0 -59 22 -197 -26 -247 -85 -43 -51 -73 -126 -80
-203 -7 -80 10 -227 33 -286 18 -46 83 -98 122 -98 14 0 35 -7 45 -15 11 -8
30 -15 43 -15 13 0 36 -9 51 -20 28 -21 107 -41 174 -44 20 -1 40 -5 44 -9 14
-13 65 -7 102 12 76 40 186 150 224 225 27 52 32 75 36 153 3 54 -1 113 -8
140 -11 47 -43 93 -64 93 -5 0 -25 14 -42 31 -24 23 -45 33 -78 36 -25 3 -46
8 -46 12 0 18 44 74 70 89 38 22 49 51 24 69 -31 23 -79 16 -110 -16z m106 -2
c0 -6 -22 -32 -50 -58 -55 -52 -64 -86 -35 -141 17 -33 11 -38 -16 -14 -9 8
-42 18 -73 21 -41 4 -60 11 -67 24 -8 15 -3 23 30 43 21 14 56 46 77 73 22 26
44 51 49 55 16 12 85 9 85 -3z m-376 -98 c17 -19 16 -20 -21 -44 -46 -29 -69
-55 -58 -65 4 -4 10 -1 12 6 3 7 23 25 46 40 34 23 48 27 75 21 36 -7 72 -35
72 -55 0 -7 -9 -18 -20 -24 -25 -14 -54 -67 -40 -75 6 -3 10 0 10 8 0 8 14 29
32 46 28 27 39 31 85 31 44 0 59 -5 78 -25 27 -26 32 -65 15 -111 -13 -33 -6
-43 10 -14 7 12 12 43 12 69 1 25 6 49 12 53 21 14 53 8 74 -15 31 -32 37 -76
18 -122 -18 -42 -16 -54 4 -29 18 20 26 129 11 138 -16 10 -14 36 3 36 61 0
99 -129 77 -263 -8 -47 -23 -90 -44 -126 -58 -97 -229 -231 -276 -216 -18 5
-17 10 20 62 21 31 36 59 33 62 -4 3 -11 -3 -18 -14 -25 -44 -84 -95 -110 -95
-14 0 -26 5 -26 10 0 6 4 10 8 10 7 0 42 63 42 75 0 3 -4 5 -10 5 -5 0 -10 -5
-10 -11 0 -17 -44 -74 -60 -77 -24 -6 -98 19 -116 39 -11 13 -17 34 -16 62 1
30 -1 38 -8 27 -5 -8 -10 -27 -10 -42 0 -38 -16 -43 -44 -15 -28 28 -41 92
-34 168 3 27 2 49 -3 49 -14 0 -21 -105 -10 -146 15 -52 14 -54 -9 -54 -90 0
-140 115 -140 314 1 139 36 221 119 276 78 51 183 66 215 31z m127 9 c46 -25
1 -55 -57 -37 -43 13 -59 28 -41 39 17 11 75 10 98 -2z m272 -109 l21 -21 -53
3 c-45 3 -56 7 -67 29 l-13 25 45 -7 c26 -4 55 -16 67 -29z"/>
<path d="M6128 2164 c-18 -19 -45 -49 -60 -65 -23 -25 -31 -28 -48 -19 -21 11
-29 -3 -9 -15 6 -5 2 -13 -11 -22 -18 -13 -28 -13 -66 -2 -24 7 -44 17 -44 22
0 5 -10 0 -22 -11 -13 -11 -39 -34 -58 -50 -19 -17 -32 -34 -27 -38 4 -4 14 2
23 14 36 51 113 67 158 31 26 -20 37 -61 14 -56 -15 3 -59 -63 -51 -76 4 -7 9
-5 12 4 21 54 61 79 126 79 36 0 51 -6 72 -26 22 -22 25 -32 20 -68 -3 -23 -9
-50 -13 -59 -3 -9 -2 -17 4 -17 13 0 24 50 24 102 -1 32 3 39 23 44 13 3 33 3
44 -1 12 -4 21 -2 21 4 0 6 -6 11 -12 12 -7 0 -26 3 -41 5 -16 3 -35 0 -42 -6
-9 -8 -17 -6 -29 5 -9 9 -41 19 -71 22 -74 8 -90 32 -42 64 17 12 56 49 86 81
48 51 58 58 92 58 22 0 39 -5 39 -11 0 -6 -22 -32 -50 -58 -42 -40 -50 -53
-50 -83 0 -20 3 -43 6 -52 9 -23 26 -20 19 4 -5 17 -2 20 25 20 17 0 40 -5 51
-10 10 -6 19 -7 19 -2 0 13 -47 32 -81 32 -27 0 -30 3 -24 23 3 12 29 42 56
67 53 49 59 64 30 80 -40 21 -79 12 -113 -26z"/>
<path d="M1176 2179 c-2 -8 -6 -21 -8 -29 -3 -10 -16 -14 -46 -11 -28 2 -43
-2 -46 -11 -2 -7 -10 -33 -18 -58 -13 -45 -13 -45 -55 -42 -37 3 -43 1 -43
-15 0 -48 -112 -246 -206 -364 -67 -84 -98 -110 -229 -188 -90 -53 -107 -67
-112 -93 -4 -19 -14 -33 -29 -39 -33 -12 -30 -21 4 -13 l27 6 -30 -26 c-32
-27 -24 -36 9 -11 25 19 33 19 33 0 0 -8 -4 -15 -9 -15 -4 0 -8 -5 -8 -12 0
-6 8 -4 19 6 10 9 25 14 34 11 35 -14 126 49 278 193 131 123 265 200 459 263
l115 37 0 48 0 48 53 12 c30 7 56 14 58 17 3 2 7 27 11 56 7 60 5 61 -108 35
-39 -9 -72 -14 -74 -12 -2 1 3 27 11 57 7 30 17 76 20 103 6 43 4 48 -12 48
-11 0 -36 3 -56 6 -27 5 -39 3 -42 -7z m96 -14 c6 -7 -16 -133 -33 -182 -6
-18 -17 -33 -25 -33 -8 0 -29 -7 -45 -16 -17 -8 -33 -13 -36 -10 -3 3 4 40 15
83 11 43 26 97 32 121 10 40 12 42 49 42 21 0 40 -2 43 -5z m-114 -51 c7 -5
-50 -200 -74 -253 -22 -50 -30 -58 -71 -73 -26 -9 -49 -16 -51 -14 -1 2 13 37
32 78 19 41 50 120 68 175 l33 101 30 -5 c17 -3 31 -7 33 -9z m-123 -126 c-9
-30 -59 -143 -82 -188 -36 -68 -77 -126 -127 -177 -28 -29 -45 -53 -40 -53 15
0 105 97 129 138 16 26 36 39 111 68 51 19 131 46 179 59 94 26 100 24 93 -31
-3 -25 -11 -29 -103 -59 -117 -37 -234 -89 -302 -136 -26 -18 -100 -78 -163
-133 -169 -149 -204 -175 -238 -182 -37 -8 -57 6 -67 43 -8 33 10 52 104 110
42 25 78 49 79 54 2 5 8 7 12 4 16 -10 155 139 215 230 67 103 135 232 135
258 0 13 8 17 36 17 32 0 35 -2 29 -22z m383 -45 c-3 -38 -3 -38 -73 -56 -38
-10 -110 -29 -159 -43 -49 -13 -91 -23 -93 -20 -2 2 3 20 11 40 11 25 26 41
50 51 62 26 200 64 234 64 32 1 33 0 30 -36z"/>
<path d="M475 1396 c-10 -7 -20 -22 -21 -32 -3 -18 -2 -18 12 1 8 11 22 26 31
33 9 6 12 12 7 12 -6 0 -19 -6 -29 -14z"/>
<path d="M4308 2184 c-5 -4 -8 -16 -8 -26 0 -15 -8 -18 -45 -18 -28 0 -47 -5
-49 -12 -2 -7 -9 -34 -16 -59 -11 -45 -12 -46 -51 -45 -40 1 -40 1 -66 -64
-47 -117 -150 -275 -240 -367 -45 -46 -82 -73 -228 -163 -41 -25 -58 -42 -62
-63 -4 -18 -14 -29 -29 -33 -34 -9 -30 -26 4 -18 l27 6 -30 -26 -30 -27 32 16
c41 20 46 19 33 -4 -15 -28 -12 -39 5 -17 9 11 20 16 30 12 38 -14 114 35 264
172 103 95 166 143 245 187 68 38 218 96 296 115 l49 12 3 51 3 52 53 11 c30
7 56 14 58 17 3 2 7 27 11 56 l6 51 -53 -5 c-29 -3 -70 -10 -91 -17 -22 -6
-41 -9 -43 -7 -3 2 2 28 10 58 7 30 17 76 20 103 6 43 4 48 -12 48 -11 0 -35
3 -54 6 -19 3 -38 2 -42 -2z m92 -37 c0 -39 -21 -140 -35 -167 -8 -15 -31 -32
-60 -42 l-47 -18 5 23 c9 39 49 201 53 215 2 7 20 12 44 12 35 0 40 -3 40 -23z
m-112 -33 c6 -4 -46 -189 -70 -248 -21 -54 -27 -59 -72 -77 -28 -10 -51 -17
-53 -15 -2 1 17 47 41 101 24 54 54 133 67 176 l22 78 31 -6 c17 -3 32 -7 34
-9z m-118 -106 c0 -14 -52 -132 -91 -210 -31 -60 -72 -121 -110 -162 -34 -36
-56 -66 -49 -66 15 0 90 80 120 129 14 22 36 45 50 52 39 18 181 66 260 88 78
22 85 19 78 -34 -3 -24 -12 -29 -105 -60 -135 -43 -279 -114 -350 -172 -32
-26 -104 -89 -161 -140 -161 -145 -219 -170 -252 -109 -19 37 3 64 97 121 43
26 80 51 81 56 2 5 8 9 14 9 19 0 99 73 150 138 71 91 172 260 189 316 12 43
16 46 46 46 18 0 33 -1 33 -2z m380 -67 c0 -38 -1 -39 -42 -46 -24 -4 -97 -23
-163 -41 -65 -18 -121 -31 -124 -29 -2 3 4 22 13 43 13 29 26 41 54 49 20 7
73 23 117 37 44 14 95 25 113 25 31 1 32 -1 32 -38z"/>
<path d="M3620 1402 c-19 -9 -37 -26 -39 -37 -3 -17 0 -16 22 8 15 15 33 27
42 27 8 0 15 5 15 10 0 13 1 13 -40 -8z"/>
<path d="M1906 2093 c-18 -56 -56 -125 -75 -137 -5 -4 -21 5 -34 18 -79 79
-165 24 -155 -97 6 -74 42 -119 130 -165 74 -39 147 -51 201 -33 31 11 39 9
72 -14 21 -14 46 -25 56 -25 49 0 116 48 146 103 21 41 -2 73 -62 88 l-45 11
0 55 c0 32 6 63 16 78 9 13 13 29 9 35 -15 25 -207 140 -233 140 -5 0 -16 -26
-26 -57z m177 -36 c42 -28 77 -55 77 -59 0 -11 -83 -70 -144 -103 l-51 -27
-62 36 -62 37 28 44 c15 24 36 69 45 99 l18 56 36 -16 c21 -8 72 -38 115 -67z
m-296 -89 c29 -27 81 -59 161 -99 77 -38 98 -66 86 -112 -13 -44 -65 -77 -123
-77 -85 0 -223 83 -251 150 -19 46 -8 129 21 153 28 23 72 17 106 -15z m343
-88 c0 -68 -1 -70 -25 -70 -17 0 -25 6 -25 18 0 9 -3 33 -6 52 -5 31 -2 37 23
52 15 10 29 18 31 18 1 0 2 -31 2 -70z m-70 6 c0 -8 3 -21 6 -29 8 -22 -30
-27 -56 -7 l-23 18 29 15 c36 20 44 21 44 3z m13 -70 c4 -10 0 -12 -14 -9 -10
3 -16 9 -13 14 8 13 21 11 27 -5z m165 -44 c2 -24 -5 -37 -34 -66 -51 -50 -93
-62 -139 -40 -45 21 -48 26 -30 60 8 16 15 38 15 49 0 18 7 21 48 22 26 1 59
6 73 11 37 14 64 0 67 -36z"/>
<path d="M1970 2045 c0 -9 -7 -30 -15 -48 l-16 -32 21 24 c18 20 29 71 15 71
-3 0 -5 -7 -5 -15z"/>
<path d="M2040 1985 c-13 -13 -31 -27 -42 -31 -10 -3 -18 -10 -18 -16 0 -14
62 26 79 52 18 27 9 25 -19 -5z"/>
<path d="M1696 1924 c-17 -45 4 -102 54 -141 32 -26 26 -11 -11 26 -40 40 -49
74 -29 112 6 11 7 19 1 19 -5 0 -12 -7 -15 -16z"/>
<path d="M5039 2108 c-15 -58 -38 -108 -62 -135 l-19 -22 -41 30 c-83 60 -147
23 -147 -86 0 -63 30 -117 86 -156 91 -62 181 -83 253 -58 26 9 35 8 49 -4 27
-25 73 -38 104 -31 36 7 94 56 114 96 14 27 14 32 -1 54 -9 15 -32 28 -60 35
l-45 11 0 55 c0 34 6 63 17 80 17 26 17 26 -22 58 -40 34 -184 115 -203 115
-6 0 -16 -19 -23 -42z m174 -51 c42 -28 77 -55 77 -59 0 -10 -71 -61 -139
-100 l-54 -31 -40 22 c-21 12 -41 20 -44 17 -3 -3 29 -21 70 -41 69 -33 77
-40 83 -70 19 -101 -104 -147 -232 -86 -117 55 -162 116 -151 208 11 98 76
110 162 30 11 -10 29 -23 40 -29 19 -10 19 -9 3 7 -15 16 -14 20 13 64 17 25
37 70 45 98 l15 53 37 -15 c20 -9 72 -39 115 -68z m47 -176 c0 -60 -2 -69 -20
-74 -25 -6 -26 -4 -34 58 -7 47 -5 51 21 67 15 10 29 18 31 18 1 0 2 -31 2
-69z m-70 5 c0 -8 3 -21 6 -29 8 -22 -30 -27 -56 -7 l-23 18 29 15 c36 20 44
21 44 3z m10 -66 c0 -5 -7 -10 -15 -10 -8 0 -15 5 -15 10 0 6 7 10 15 10 8 0
15 -4 15 -10z m90 0 c0 -5 -2 -10 -4 -10 -3 0 -8 5 -11 10 -3 6 -1 10 4 10 6
0 11 -4 11 -10z m69 -19 c24 -24 18 -50 -20 -90 -59 -63 -114 -73 -168 -32
-22 17 -23 19 -7 49 9 17 16 39 16 50 0 15 8 19 48 20 26 0 58 5 72 11 35 14
38 13 59 -8z"/>
<path d="M5100 2045 c0 -9 -7 -30 -15 -48 l-16 -32 21 24 c18 20 29 71 15 71
-3 0 -5 -7 -5 -15z"/>
<path d="M5175 1990 c-27 -30 -12 -34 15 -5 13 14 19 25 13 25 -5 0 -18 -9
-28 -20z"/>
<path d="M5126 1954 c-11 -7 -17 -16 -15 -19 3 -3 14 2 25 9 10 8 17 17 14 19
-3 3 -14 -1 -24 -9z"/>
<path d="M4826 1924 c-17 -45 1 -96 49 -136 39 -33 35 -18 -6 23 -39 39 -41
44 -35 85 6 45 3 56 -8 28z"/>
<path d="M5755 2103 c-140 -31 -227 -134 -241 -289 -8 -91 11 -237 39 -294 25
-51 79 -92 117 -88 14 2 33 -5 43 -14 9 -10 31 -18 47 -18 17 0 30 -4 30 -8 0
-20 106 -51 193 -57 21 -1 40 -5 44 -9 3 -3 21 -6 39 -6 34 0 129 57 173 104
42 44 19 37 -43 -14 -66 -55 -127 -85 -151 -76 -14 5 -13 11 13 44 38 48 56
82 43 82 -6 0 -15 -10 -22 -22 -23 -46 -72 -88 -101 -88 -33 0 -35 6 -9 34 21
23 37 66 24 66 -4 0 -15 -15 -23 -33 -8 -17 -27 -38 -41 -46 -23 -13 -32 -13
-70 2 -70 27 -72 30 -71 84 1 39 -1 44 -9 30 -6 -11 -9 -29 -6 -42 6 -34 -19
-40 -48 -11 -27 27 -40 92 -33 167 3 27 2 49 -3 49 -14 0 -21 -105 -10 -146
15 -52 14 -54 -9 -54 -37 0 -79 29 -99 68 -28 55 -44 178 -39 287 5 87 8 100
40 152 25 40 51 66 92 92 51 31 65 35 119 34 95 -2 108 -2 160 0 26 1 47 5 47
9 0 13 -65 19 -93 9 -19 -8 -34 -8 -47 -1 -19 10 -58 11 -95 3z"/>
<path d="M0 1984 c0 -6 5 -15 12 -22 9 -9 9 -12 0 -12 -17 0 -15 -23 5 -58 18
-31 15 -62 -12 -127 -8 -18 -7 -18 8 -6 9 7 15 17 12 21 -3 5 -1 11 5 15 14 9
13 91 -2 115 -16 26 -4 36 27 22 40 -18 58 -74 59 -177 1 -109 -19 -174 -76
-246 -48 -62 -44 -76 5 -18 69 80 81 119 82 254 0 132 -16 188 -58 201 -12 3
-32 16 -44 27 -13 11 -23 16 -23 11z"/>
<path d="M1443 1653 c-26 -5 -27 -10 -13 -49 14 -35 5 -43 -12 -10 -13 24 -14
24 -37 7 l-23 -18 53 -50 53 -51 -27 -32 c-41 -48 -36 -84 43 -291 39 -101 84
-221 102 -267 31 -82 63 -132 85 -132 25 0 23 71 -7 352 -35 320 -42 344 -103
369 -17 7 -33 13 -35 14 -1 1 5 21 13 45 8 23 15 44 15 46 0 2 -15 7 -32 12
-26 6 -34 14 -36 35 -2 15 -6 26 -10 26 -4 -1 -17 -4 -29 -6z m30 -70 c3 -32
5 -59 3 -61 -4 -3 -36 92 -36 107 0 6 6 11 14 11 9 0 15 -19 19 -57z m-43 -36
c0 -5 -9 -2 -20 8 -11 10 -20 25 -20 34 1 12 5 10 20 -8 11 -13 20 -28 20 -34z
m96 11 c-3 -13 -6 -27 -6 -33 0 -5 -5 -3 -10 5 -15 23 -12 50 6 50 12 0 15 -6
10 -22z m47 -100 c26 -13 47 -69 47 -123 0 -45 0 -45 -40 -51 -22 -4 -40 -11
-40 -16 0 -5 8 -7 18 -4 9 3 29 8 43 11 l26 6 12 -102 c12 -111 10 -119 -37
-119 -13 0 -21 -4 -17 -9 3 -6 17 -6 35 -1 26 7 29 6 34 -18 12 -57 18 -164 9
-159 -5 3 -15 2 -23 -4 -12 -7 -10 -9 8 -9 19 0 22 -5 22 -39 0 -61 -15 -57
-49 11 -34 68 -38 88 -17 88 8 0 18 5 21 11 4 6 -3 9 -20 7 -24 -3 -28 2 -50
62 -12 36 -26 72 -30 82 -5 12 1 18 24 23 17 4 34 11 38 17 4 8 0 9 -11 5 -60
-23 -59 -24 -98 80 -21 54 -38 102 -38 106 0 4 8 7 19 7 22 0 84 21 78 26 -2
3 -26 0 -52 -6 -54 -12 -65 -5 -65 41 0 30 33 77 64 89 22 9 58 4 89 -12z"/>
<path d="M1550 1204 l-45 -14 43 4 c24 3 46 7 49 10 13 12 -4 12 -47 0z"/>
<path d="M4573 1650 c-27 -11 -28 -19 -8 -46 15 -18 15 -18 9 9 -5 20 -2 27 9
27 10 0 16 -16 20 -57 7 -63 1 -84 -9 -35 -4 18 -13 32 -20 32 -8 0 -19 9 -26
19 -11 17 -14 18 -35 4 l-23 -15 23 -24 c26 -28 48 -33 23 -5 -10 11 -15 25
-11 32 6 8 12 3 22 -15 8 -14 11 -30 9 -35 -3 -5 4 -20 15 -35 l21 -26 -26
-31 c-32 -38 -34 -86 -7 -155 11 -27 51 -132 90 -234 88 -234 99 -261 119
-282 23 -26 40 -22 47 12 9 42 -52 597 -71 638 -9 22 -27 39 -53 50 l-38 17
13 45 c15 49 8 60 -34 60 -16 0 -23 5 -21 18 4 44 0 47 -38 32z m83 -86 c-3
-9 -6 -23 -6 -32 0 -15 -2 -15 -10 -2 -15 23 -12 50 6 50 11 0 14 -5 10 -16z
m55 -109 c19 -12 39 -72 39 -120 0 -45 0 -45 -40 -51 -22 -4 -40 -11 -40 -16
0 -5 8 -7 18 -4 9 3 29 8 43 11 l26 6 12 -102 c12 -111 10 -119 -37 -119 -13
0 -21 -4 -17 -9 3 -6 17 -6 34 -1 32 9 33 9 46 -111 6 -51 5 -56 -17 -66 l-23
-12 23 0 c19 -1 22 -6 22 -46 0 -25 -4 -45 -9 -45 -10 0 -71 119 -71 139 0 6
6 11 14 11 8 0 18 5 21 10 4 7 -2 9 -19 4 -20 -5 -27 -2 -32 12 -3 11 -17 47
-30 82 -29 75 -29 72 -6 72 10 0 27 7 38 16 19 15 19 16 -1 9 -60 -22 -59 -23
-98 83 -20 54 -37 102 -37 105 0 4 10 7 23 7 12 1 36 7 52 15 l30 15 -35 -7
c-71 -14 -85 -10 -88 21 -10 87 80 139 159 91z"/>
<path d="M4675 1205 c-39 -13 -39 -13 -9 -14 16 -1 39 6 50 14 23 17 12 17
-41 0z"/>
<path d="M1964 1401 c-17 -11 -41 -40 -53 -65 -20 -40 -21 -50 -11 -81 19 -57
92 -108 202 -140 68 -19 102 -57 68 -75 -17 -9 -28 -7 -55 10 -46 28 -92 24
-118 -12 -18 -24 -19 -32 -9 -66 19 -64 47 -70 212 -46 45 7 109 -37 135 -92
25 -54 44 -74 72 -74 51 0 123 58 123 99 0 14 -18 50 -40 81 -63 90 -80 146
-80 256 0 107 -15 158 -52 170 -45 15 -83 -1 -99 -43 -10 -27 0 -125 12 -117
5 3 6 16 3 29 -5 21 -3 24 25 23 17 -1 34 2 38 5 3 4 -10 7 -30 7 -22 0 -37 5
-38 13 -4 44 22 77 62 77 41 0 61 -36 67 -122 l5 -71 -54 6 c-34 3 -46 2 -34
-3 11 -5 32 -9 47 -9 21 -1 29 -7 33 -26 3 -14 8 -37 11 -52 7 -36 46 -113 85
-165 16 -23 29 -49 29 -59 0 -37 -85 -95 -124 -85 -14 3 -30 21 -41 46 -10 22
-33 55 -51 74 l-33 34 30 28 c16 15 27 30 24 32 -3 3 -17 -7 -31 -21 -15 -15
-29 -27 -33 -27 -3 -1 -35 -3 -71 -6 -132 -11 -145 -10 -141 6 2 8 6 29 7 45
l4 30 -11 -30 c-6 -16 -13 -36 -15 -44 -9 -28 -35 27 -32 66 2 31 8 39 31 48
23 8 36 5 67 -13 49 -28 61 -28 93 1 14 12 37 30 51 40 14 10 26 23 26 29 0 6
-10 2 -22 -9 -38 -33 -47 -35 -69 -14 -12 11 -45 28 -73 37 -64 21 -146 62
-146 73 0 4 9 16 21 27 11 10 25 28 31 39 6 11 -7 3 -29 -18 -38 -36 -40 -37
-56 -19 -54 60 29 196 108 176 26 -7 85 -66 85 -87 0 -7 -14 -29 -31 -50 -17
-20 -26 -37 -21 -37 5 0 22 16 37 36 l28 36 28 -53 c30 -54 57 -89 69 -89 3 0
15 7 26 16 18 15 18 15 -4 9 -32 -9 -46 6 -94 97 -44 85 -97 138 -138 138 -14
0 -39 -9 -56 -19z"/>
<path d="M5094 1401 c-30 -18 -74 -91 -74 -123 0 -8 13 -33 29 -56 30 -40 85
-72 206 -118 36 -14 51 -26 53 -41 5 -32 -31 -39 -66 -13 -39 29 -88 24 -115
-12 -18 -24 -19 -32 -8 -68 11 -36 20 -45 44 -41 4 0 7 -4 7 -10 0 -11 46 -9
143 7 21 4 50 1 66 -6 30 -12 94 -74 85 -82 -2 -3 6 -20 19 -39 36 -54 82 -49
155 15 32 28 27 63 -19 128 -59 85 -79 149 -79 258 0 55 -6 104 -14 124 -23
55 -90 66 -126 20 -14 -17 -14 -17 10 -1 36 25 76 22 96 -8 9 -14 19 -54 22
-90 5 -74 -5 -85 -64 -67 -19 5 -34 7 -34 2 0 -9 35 -20 66 -20 23 0 34 -17
34 -53 0 -29 39 -112 84 -178 20 -30 36 -61 36 -70 0 -21 -62 -77 -95 -85 -30
-8 -53 9 -71 52 -7 17 -29 47 -48 66 l-35 35 29 28 c17 16 28 31 25 34 -3 2
-18 -7 -33 -21 -21 -20 -41 -27 -87 -31 -33 -3 -81 -9 -106 -13 -48 -7 -72 7
-50 29 6 6 11 22 10 36 0 23 -1 22 -12 -8 -15 -42 -34 -51 -42 -18 -21 81 26
119 95 79 22 -12 45 -22 53 -22 18 0 104 67 112 88 4 10 -5 6 -22 -11 -33 -31
-48 -34 -61 -11 -5 8 -40 26 -78 40 -38 14 -88 36 -111 50 l-41 24 35 35 c20
20 33 38 30 41 -3 4 -20 -11 -38 -31 l-33 -37 -18 22 c-52 64 29 196 107 176
26 -7 85 -70 85 -91 0 -8 -14 -30 -31 -50 -17 -19 -26 -35 -21 -35 6 0 23 16
38 36 l27 35 31 -57 c38 -70 64 -90 91 -70 13 9 19 25 18 49 -1 34 1 36 36 40
l36 4 -37 1 c-33 2 -38 5 -38 27 0 14 -5 25 -10 25 -7 0 -8 -23 -4 -65 6 -55
4 -66 -10 -71 -24 -9 -42 10 -88 98 -44 85 -97 138 -138 138 -14 0 -39 -9 -56
-19z"/>
<path d="M1054 1334 c-30 -84 -25 -80 -115 -92 -110 -15 -214 -66 -280 -135
-27 -28 -46 -53 -44 -56 3 -2 21 14 40 36 62 73 204 144 287 143 29 -1 21 -7
-64 -50 -116 -58 -178 -99 -235 -153 -43 -41 -52 -43 -33 -6 6 10 7 19 2 19
-11 0 -52 -91 -52 -114 0 -15 4 -15 36 -1 47 19 44 20 44 -19 0 -40 15 -55 63
-63 26 -4 49 1 82 17 54 26 75 54 83 112 4 30 15 53 40 78 18 19 38 44 44 55
5 11 -11 -2 -36 -29 -30 -32 -51 -46 -61 -42 -23 8 -30 -21 -11 -43 25 -27 11
-68 -36 -101 -78 -57 -150 -47 -156 21 -5 63 68 129 143 129 28 0 49 11 98 50
55 45 63 48 70 32 6 -13 -8 -54 -51 -143 -56 -119 -60 -124 -90 -125 -65 -2
-122 -74 -122 -154 0 -43 23 -100 41 -100 6 0 1 12 -10 26 -38 48 -22 144 30
190 33 29 56 35 69 18 7 -8 21 -14 31 -14 21 0 39 -36 39 -73 -1 -59 -66 -138
-115 -141 -29 -1 -34 -16 -6 -16 30 0 84 43 108 85 29 51 30 113 3 148 -25 32
-25 33 4 93 l25 49 0 -53 c1 -91 46 -154 108 -154 35 0 69 39 78 91 12 73 -52
172 -103 159 -17 -5 -18 -1 -4 71 24 128 30 129 97 10 31 -57 64 -114 73 -128
9 -16 -4 -7 -35 23 -47 45 -66 75 -93 150 -6 16 -13 26 -16 24 -2 -3 4 -30 16
-60 20 -55 96 -150 152 -189 l31 -22 -5 79 c-6 114 -55 197 -156 264 -21 15
-22 16 -7 64 14 47 13 80 -1 40z m-63 -131 c-13 -25 -77 -84 -130 -122 -29
-20 -56 -31 -78 -31 -44 0 -69 -13 -113 -59 -37 -39 -90 -68 -90 -50 0 15 88
100 145 139 51 35 251 140 267 140 5 0 5 -7 -1 -17z m99 -10 c71 -52 126 -158
118 -232 l-3 -34 -33 52 c-45 69 -135 241 -127 241 4 0 24 -12 45 -27z m-107
-135 c-4 -27 -17 -53 -35 -71 -15 -16 -28 -27 -28 -24 0 10 61 137 65 137 3 0
2 -19 -2 -42z m84 -101 c33 -49 34 -131 3 -165 -54 -58 -140 8 -140 108 0 54
15 80 45 80 13 0 26 4 29 9 10 16 41 1 63 -32z"/>
<path d="M1041 938 c7 -13 16 -39 20 -58 l7 -35 1 32 c1 35 -17 83 -31 83 -5
0 -3 -10 3 -22z"/>
<path d="M4177 1318 c-8 -19 -18 -45 -22 -57 -3 -11 -11 -19 -16 -15 -5 3 -42
1 -82 -5 -92 -14 -202 -67 -261 -126 -45 -46 -106 -153 -106 -187 0 -17 2 -17
36 -3 47 19 44 20 44 -19 0 -47 36 -71 97 -62 l44 6 -35 -36 c-39 -40 -51 -83
-43 -144 14 -104 124 -101 184 5 28 50 29 97 3 144 l-21 36 25 55 25 55 2 -50
2 -50 6 45 c8 57 17 70 46 70 28 0 43 19 25 30 -10 6 -10 23 0 81 11 65 14 71
23 49 34 -85 58 -122 113 -177 34 -35 67 -63 73 -63 7 0 11 24 11 63 0 51 -6
76 -30 124 -27 55 -87 120 -133 148 -16 9 -16 14 -2 59 18 58 12 73 -8 24z
m-167 -136 c-122 -62 -168 -91 -222 -141 -23 -23 -47 -41 -51 -41 -21 0 44 88
96 132 32 26 59 48 60 48 1 0 34 11 72 25 39 13 86 25 105 25 32 0 26 -5 -60
-48z m110 23 c-7 -8 -9 -15 -6 -15 4 0 -10 -15 -31 -32 -21 -18 -40 -36 -43
-39 -22 -26 -98 -69 -122 -69 -40 0 -103 -34 -129 -70 -22 -29 -79 -58 -79
-40 0 14 96 106 148 142 51 35 248 138 265 138 5 0 4 -7 -3 -15z m129 -43 c64
-63 95 -132 89 -199 l-3 -38 -35 58 c-19 31 -38 57 -42 57 -5 0 2 -17 15 -37
13 -21 27 -44 31 -50 14 -25 -5 -12 -44 30 -48 49 -89 128 -96 183 -5 36 -2
33 37 -38 23 -43 45 -78 49 -78 4 0 -13 38 -37 85 -24 47 -39 85 -33 85 6 0
38 -26 69 -58z m-165 -34 c-21 -36 -78 -98 -90 -98 -30 0 -20 19 33 63 57 49
70 56 57 35z m-7 -72 c-14 -31 -22 -56 -18 -56 5 0 16 20 25 45 23 59 35 65
28 13 -3 -29 -15 -52 -36 -73 -18 -18 -27 -23 -23 -12 3 9 3 17 -1 17 -4 -1
-21 -31 -38 -68 -30 -65 -32 -67 -68 -68 l-38 -1 31 19 c38 24 61 65 61 109 0
23 12 44 48 84 26 29 49 51 51 49 1 -1 -8 -28 -22 -58z m-114 -31 c0 -5 6 -22
14 -36 14 -23 14 -29 -1 -58 -20 -37 -63 -66 -113 -76 -102 -19 -115 102 -17
162 40 24 121 30 117 8z m5 -194 c9 -5 25 -12 34 -15 22 -7 32 -46 24 -91 -8
-42 -54 -98 -96 -115 -88 -36 -124 109 -48 195 30 35 54 43 86 26z"/>
<path d="M3862 997 c-24 -14 -68 -77 -53 -77 4 0 13 11 19 25 6 14 26 34 44
45 36 22 27 27 -10 7z"/>
<path d="M3967 710 c-9 -20 -27 -42 -40 -48 -16 -8 -18 -11 -5 -11 18 -1 53
38 64 71 10 34 0 27 -19 -12z"/>
<path d="M2122 1193 c-26 -29 -27 -34 -7 -27 15 6 40 42 33 49 -2 2 -13 -8
-26 -22z"/>
<path d="M5252 1193 c-13 -14 -21 -27 -19 -30 6 -5 47 37 47 49 0 11 -1 10
-28 -19z"/>
<path d="M2824 1106 c-17 -8 -38 -23 -46 -35 -8 -11 -29 -24 -47 -27 -42 -9
-39 -39 5 -40 18 -1 40 -11 57 -28 l26 -26 193 2 c181 3 196 2 250 -20 92 -37
171 -112 195 -186 5 -17 14 -31 20 -33 14 -5 24 37 13 56 -8 14 -9 13 -10 -3
0 -12 -14 3 -38 40 -45 69 -111 116 -202 145 -72 22 -150 26 -286 15 -105 -9
-130 -2 -104 29 9 10 7 16 -6 23 -14 8 -16 13 -6 24 9 11 9 17 0 26 -25 25 9
36 107 34 148 -2 271 -42 377 -120 70 -52 140 -132 146 -167 5 -23 10 -30 18
-23 20 21 -82 150 -166 210 -51 36 -137 75 -205 93 -86 23 -251 30 -291 11z
m-5 -40 c8 -10 9 -16 1 -21 -6 -4 -7 -12 -1 -24 6 -10 6 -23 0 -32 -14 -21
-29 6 -29 54 0 39 10 47 29 23z m-51 -43 c-10 -2 -26 -2 -35 0 -10 3 -2 5 17
5 19 0 27 -2 18 -5z"/>
<path d="M5963 1113 c-12 -2 -34 -19 -49 -36 -15 -18 -31 -33 -35 -33 -5 -1
-18 -2 -29 -3 -13 -1 -20 -8 -20 -22 0 -17 5 -20 35 -18 27 3 39 -2 50 -18 8
-12 29 -25 47 -28 41 -9 306 5 287 15 -8 4 -69 3 -137 -3 -94 -8 -125 -8 -134
1 -9 9 -9 15 0 24 9 9 7 14 -5 24 -14 9 -15 15 -5 26 8 10 8 18 1 25 -31 31
33 44 156 32 44 -4 94 -10 110 -14 21 -5 27 -4 20 3 -21 23 -216 40 -292 25z
m-12 -66 c-7 -7 -7 -17 0 -30 8 -13 8 -22 0 -30 -16 -16 -31 8 -31 49 0 37 9
48 27 32 9 -7 10 -15 4 -21z m-53 -24 c-10 -2 -26 -2 -35 0 -10 3 -2 5 17 5
19 0 27 -2 18 -5z"/>
<path d="M6 1082 c5 -5 29 -17 52 -26 145 -56 301 -212 290 -289 -2 -18 -7
-14 -27 23 -27 52 -79 102 -136 132 -47 25 -129 48 -165 47 -14 0 11 -11 55
-23 44 -12 94 -29 110 -38 48 -26 113 -97 137 -149 23 -53 37 -62 39 -26 5 95
-49 180 -172 270 -58 42 -221 112 -183 79z"/>
<path d="M2940 1081 c0 -6 17 -11 38 -11 35 0 122 -19 166 -36 12 -5 17 -4 13
3 -16 25 -217 66 -217 44z"/>
<path d="M6070 1080 c0 -5 17 -10 38 -10 21 0 62 -6 92 -14 51 -13 71 -14 58
-1 -7 7 -138 35 -165 35 -13 0 -23 -4 -23 -10z"/>
<path d="M5 1040 c3 -5 11 -10 16 -10 6 0 7 5 4 10 -3 6 -11 10 -16 10 -6 0
-7 -4 -4 -10z"/>
<path d="M730 995 c-26 -14 -68 -75 -52 -75 5 0 14 11 20 25 6 14 26 34 44 45
37 22 27 27 -12 5z"/>
<path d="M4179 977 c50 -53 59 -140 19 -187 -23 -26 -23 -37 -1 -19 28 24 45
78 37 123 -8 49 -26 79 -62 102 -24 15 -23 13 7 -19z"/>
<path d="M4171 938 c7 -13 16 -39 20 -58 l7 -35 1 32 c1 35 -17 83 -31 83 -5
0 -3 -10 3 -22z"/>
<path d="M2439 913 c-8 -9 -27 -22 -44 -29 -23 -10 -25 -13 -10 -14 17 0 75
42 75 55 0 9 -8 5 -21 -12z"/>
<path d="M5569 913 c-8 -9 -27 -22 -44 -29 -19 -8 -24 -13 -12 -14 22 0 63 26
71 46 7 19 2 18 -15 -3z"/>
<path d="M4051 855 c-1 -9 46 -85 52 -85 1 0 17 -4 35 -9 20 -6 32 -6 32 0 0
5 -11 9 -24 9 -23 0 -52 27 -83 76 -6 11 -12 14 -12 9z"/>
<path d="M1372 770 c-9 -16 -22 -30 -29 -30 -45 0 -83 -44 -83 -98 -1 -95
-128 -229 -250 -262 -178 -48 -222 -290 -66 -361 65 -29 139 -21 222 23 90 49
205 246 265 453 36 127 36 187 -1 217 -20 16 -22 22 -11 45 10 21 9 28 -1 34
-21 14 -28 11 -46 -21z m38 7 c0 -7 -6 -21 -13 -32 -19 -26 -30 -3 -11 23 17
25 24 28 24 9z m1 -63 c20 -5 39 -46 39 -82 l-1 -27 -26 30 c-17 19 -28 25
-31 17 -6 -20 -33 -43 -43 -37 -5 4 -9 19 -9 35 l0 29 -35 -15 c-40 -16 -47
-4 -17 32 27 33 54 37 123 18z m-67 -121 c3 -4 17 4 31 17 24 23 25 23 46 4
24 -22 22 -39 -20 -170 -76 -233 -175 -372 -294 -414 -69 -24 -89 -25 -149 -3
-84 30 -121 137 -79 228 25 55 54 79 136 112 131 54 207 123 246 226 9 23 27
47 40 54 22 12 24 10 30 -18 4 -16 9 -33 13 -36z"/>
<path d="M985 298 c-43 -25 -76 -77 -74 -121 0 -12 7 -2 15 25 13 43 30 62 80
95 24 15 6 16 -21 1z"/>
<path d="M920 123 c0 -11 38 -49 43 -42 2 2 -7 15 -20 28 -13 13 -23 20 -23
14z"/>
<path d="M2802 791 c-7 -4 -10 -15 -6 -24 4 -12 -7 -31 -39 -62 -49 -49 -67
-56 -67 -25 0 14 16 31 50 52 28 17 50 33 50 34 0 11 -23 0 -69 -30 -28 -19
-51 -29 -51 -23 0 15 -40 41 -48 32 -4 -4 -7 -29 -8 -57 0 -48 -2 -50 -40 -68
-47 -22 -101 -66 -93 -74 3 -4 20 -8 37 -9 31 -2 31 -3 24 -42 -22 -124 6
-213 86 -270 40 -28 50 -30 125 -30 70 1 90 5 137 29 117 60 200 183 207 309
4 64 1 78 -24 127 -38 74 -100 109 -190 110 -46 0 -62 4 -65 15 -2 9 -8 11
-16 6z m201 -67 c58 -42 82 -93 82 -179 0 -83 -29 -154 -93 -226 -79 -89 -218
-138 -307 -109 -51 17 -111 73 -126 117 -24 73 -7 204 28 217 23 9 24 5 14
-50 -11 -55 -10 -57 13 -48 12 5 14 10 6 19 -12 14 -5 76 12 108 5 9 18 17 29
17 18 0 20 -4 15 -27 -4 -16 -16 -40 -26 -55 -24 -33 -26 -45 -4 -27 22 18 44
64 44 92 0 21 6 25 41 30 40 5 119 49 119 66 0 5 -20 6 -45 3 -25 -2 -45 -1
-45 4 0 5 16 26 36 48 l35 39 66 -6 c50 -4 75 -11 106 -33z m-344 -18 c16 -30
11 -60 -12 -64 -14 -3 -17 4 -17 42 0 51 10 58 29 22z m151 -55 c0 -13 -86
-45 -99 -37 -14 9 -3 34 17 39 32 9 82 7 82 -2z m-126 -32 c-9 -10 -21 -19
-26 -19 -15 0 -8 29 9 39 26 14 37 2 17 -20z m-55 -18 c-13 -36 -45 -53 -95
-49 l-39 3 34 24 c26 19 82 45 108 51 1 0 -3 -13 -8 -29z"/>
<path d="M2930 683 c57 -21 108 -113 94 -169 -5 -19 -4 -25 5 -20 15 10 14 70
-3 110 -15 35 -73 87 -97 85 -11 0 -11 -2 1 -6z"/>
<path d="M2996 420 c-9 -17 -13 -30 -8 -30 10 0 37 48 31 55 -3 2 -13 -9 -23
-25z"/>
<path d="M4513 788 c-6 -7 -12 -20 -16 -29 -3 -9 -19 -19 -35 -22 -30 -6 -67
-35 -57 -45 3 -3 12 3 19 14 23 30 104 24 133 -11 20 -23 33 -85 18 -85 -3 0
-16 10 -28 23 -12 13 -21 21 -20 19 4 -8 -42 -40 -49 -35 -5 2 -8 18 -8 34 0
28 -1 29 -22 17 -20 -10 -21 -13 -5 -16 9 -2 17 -11 17 -20 0 -9 5 -24 10 -32
7 -12 13 -11 35 10 l25 24 22 -21 c20 -21 21 -22 4 -87 -35 -141 -120 -324
-187 -403 -71 -84 -181 -127 -261 -104 -69 21 -105 65 -119 146 l-6 40 -2 -40
c-1 -58 34 -115 89 -143 89 -46 215 -10 301 86 88 98 205 372 216 507 5 56 3
63 -23 94 -22 27 -25 36 -16 51 17 28 -15 54 -35 28z m27 -11 c0 -18 -27 -53
-35 -46 -7 8 15 59 27 59 4 0 8 -6 8 -13z"/>
<path d="M5877 753 l-68 -45 -20 21 c-11 11 -24 21 -29 21 -12 0 -23 -63 -15
-89 5 -17 1 -23 -20 -31 -40 -15 -116 -70 -110 -79 2 -5 19 -11 36 -15 27 -5
30 -9 25 -28 -39 -138 8 -257 120 -304 132 -55 321 40 400 202 53 109 41 235
-29 304 -43 43 -89 60 -157 60 -43 0 -59 4 -62 14 -2 11 -22 2 -71 -31z m10
-50 c-50 -47 -79 -56 -70 -22 7 25 106 94 112 77 2 -6 -17 -31 -42 -55z m224
30 c75 -39 104 -91 104 -188 -1 -94 -37 -175 -111 -245 -146 -138 -348 -129
-410 18 -26 63 -14 203 19 224 20 12 24 0 17 -49 -5 -26 -6 -50 -4 -52 6 -6
63 50 77 74 6 11 13 35 16 54 5 30 9 34 43 36 36 2 118 46 118 64 0 5 -20 6
-45 3 -25 -2 -45 -1 -45 4 0 5 16 26 35 47 30 33 39 37 83 37 33 0 66 -9 103
-27z m-311 -58 c0 -24 -22 -49 -33 -38 -4 3 -7 27 -7 51 0 44 0 45 20 27 11
-10 20 -28 20 -40z m135 -30 c-25 -20 -80 -34 -104 -28 -10 2 -22 0 -25 -6
-10 -16 -26 -14 -26 3 0 16 27 29 41 20 5 -3 19 2 31 10 12 9 41 16 63 16 37
-1 39 -2 20 -15z m-172 -45 c-8 -29 -57 -52 -101 -48 l-37 3 50 32 c59 39 96
44 88 13z m47 -27 c0 -22 -48 -103 -61 -103 -6 0 -8 7 -5 16 3 9 6 28 6 44 0
31 22 60 46 60 8 0 14 -7 14 -17z"/>
<path d="M6080 668 c54 -37 74 -72 74 -127 0 -28 3 -48 8 -45 13 8 9 71 -6
107 -15 37 -69 87 -93 87 -9 0 -2 -9 17 -22z"/>
<path d="M6127 424 c-22 -29 -14 -47 8 -18 12 16 20 45 13 44 -2 0 -11 -12
-21 -26z"/>
<path d="M850 734 c0 -9 -15 -31 -34 -50 -19 -19 -28 -34 -21 -34 19 0 65 58
65 81 0 10 -2 19 -5 19 -3 0 -5 -7 -5 -16z"/>
<path d="M1855 650 c-58 -41 -157 -140 -195 -195 -67 -98 -89 -218 -49 -269
11 -14 26 -26 33 -26 6 0 18 -16 25 -36 12 -34 60 -74 89 -74 8 0 22 -10 32
-22 32 -39 135 -20 248 46 29 17 61 36 70 41 10 6 53 37 96 69 76 58 116 112
100 137 -3 5 -7 31 -9 57 -2 35 -9 52 -30 69 -14 13 -35 23 -46 23 -34 0 -3
39 48 61 l46 20 -29 32 c-16 17 -30 34 -32 36 -1 3 -15 -8 -31 -23 -15 -15
-44 -29 -63 -32 -29 -5 -37 -2 -52 20 -22 34 -74 66 -107 66 -15 0 -32 7 -39
15 -19 23 -60 17 -105 -15z m99 4 c28 -27 18 -57 -30 -94 -83 -64 -175 -183
-239 -309 -14 -28 -25 -57 -25 -66 0 -19 -11 -19 -36 -1 -15 12 -19 27 -19 78
0 94 45 180 144 278 81 80 146 128 173 129 9 1 24 -6 32 -15z m96 -34 c8 -5
24 -18 34 -29 19 -21 19 -21 -2 -21 -36 0 -101 40 -102 63 0 8 45 -1 70 -13z
m230 -62 c0 -5 -16 -16 -35 -24 -38 -16 -57 -49 -48 -83 3 -13 1 -21 -6 -21
-14 0 -121 104 -121 118 0 5 24 7 53 4 43 -3 58 0 87 21 32 22 37 23 53 9 9
-8 17 -19 17 -24z m-203 -42 c41 -49 77 -81 108 -96 26 -12 49 -29 52 -37 10
-25 -66 -92 -235 -207 -159 -108 -225 -131 -280 -96 -38 23 -56 62 -49 107 7
39 82 169 141 245 53 66 159 158 184 158 10 0 45 -33 79 -74z m191 -84 c17
-22 15 -62 -3 -62 -8 0 -15 6 -15 13 0 8 -9 22 -20 32 -28 25 -26 48 3 40 12
-4 28 -14 35 -23z m3 -82 c36 -20 25 -68 -28 -117 -57 -53 -188 -141 -263
-177 -68 -33 -160 -45 -178 -24 -10 13 -5 18 30 32 82 31 361 223 397 273 19
26 17 26 42 13z"/>
<path d="M4390 648 c-1 -45 -31 -108 -76 -158 -46 -50 -90 -79 -159 -104 -27
-10 -67 -29 -87 -42 -39 -25 -93 -105 -85 -126 2 -7 12 6 22 30 18 44 87 112
114 112 35 0 144 62 189 107 26 26 58 71 71 98 12 28 27 59 33 70 8 14 8 20
-1 23 -6 2 -9 8 -5 13 3 5 0 9 -5 9 -6 0 -11 -15 -11 -32z"/>
<path d="M4994 654 c-164 -111 -273 -269 -274 -395 0 -47 28 -99 54 -99 6 0
18 -16 25 -36 12 -34 60 -74 89 -74 8 0 22 -10 32 -22 47 -58 216 5 413 155
87 66 117 111 100 150 -6 13 -9 35 -6 50 4 20 -2 33 -24 54 -16 15 -37 33 -48
39 -26 14 -12 32 43 55 l45 20 -29 32 c-16 17 -30 34 -32 36 -1 2 -12 -5 -25
-16 -59 -54 -87 -54 -135 -3 -28 29 -49 41 -80 46 -23 3 -47 13 -53 20 -18 21
-52 17 -95 -12z m88 -1 c18 -16 25 -63 9 -63 -13 0 -183 -172 -176 -178 3 -3
27 18 52 47 57 66 139 131 163 131 10 0 43 -31 75 -70 37 -45 75 -80 108 -97
28 -16 53 -34 55 -41 14 -45 -384 -322 -463 -322 -51 0 -105 57 -105 112 0 24
49 123 91 185 17 24 26 43 21 43 -19 0 -122 -182 -122 -215 0 -21 -16 -19 -41
6 -19 19 -21 29 -16 81 11 119 105 254 252 361 56 41 71 44 97 20z m81 -27
c18 -7 41 -23 51 -35 19 -21 19 -21 -2 -21 -22 0 -82 29 -94 45 -20 27 -3 32
45 11z m231 -45 c19 -21 14 -41 -8 -41 -30 0 -58 -35 -58 -73 0 -20 -5 -37
-11 -37 -13 0 -117 105 -117 118 0 5 24 7 53 4 47 -4 57 -1 83 22 35 31 36 31
58 7z m-7 -143 c26 -24 31 -68 8 -68 -8 0 -15 6 -15 13 0 8 -9 22 -20 32 -22
20 -27 45 -8 45 6 0 22 -10 35 -22z m14 -88 c21 -12 25 -50 10 -79 -13 -24
-150 -128 -236 -180 -104 -62 -213 -89 -243 -59 -8 8 7 20 64 48 41 21 83 45
93 54 10 9 21 16 25 16 14 0 235 169 248 190 15 23 14 23 39 10z"/>
<path d="M308 503 c-18 -22 -32 -28 -67 -29 -38 -1 -49 -7 -79 -39 -32 -35
-34 -41 -29 -89 4 -44 2 -54 -14 -64 -46 -29 -39 -121 10 -137 16 -5 21 -15
21 -41 0 -46 13 -69 47 -82 42 -15 95 -23 88 -13 -11 19 17 23 36 5 10 -9 21
-15 24 -12 3 3 -1 11 -10 18 -22 18 -18 40 8 40 12 0 33 3 46 7 23 6 24 4 18
-30 -4 -23 -2 -37 5 -37 7 0 9 16 6 44 -7 59 4 75 27 39 10 -15 29 -38 44 -50
31 -26 48 -16 57 33 10 56 24 49 26 -13 l2 -58 3 53 c4 48 7 53 37 66 42 18
64 66 49 107 -6 16 -8 31 -3 34 4 2 10 19 14 36 8 39 -18 97 -51 112 -12 5
-23 17 -23 25 0 26 -34 71 -63 83 -23 10 -34 9 -60 -3 -29 -14 -34 -14 -51 3
-31 30 -89 25 -118 -8z m118 -8 c16 -24 18 -25 35 -9 43 39 119 8 119 -47 0
-21 7 -32 30 -44 16 -8 34 -24 40 -34 14 -26 13 -84 -2 -99 -9 -9 -9 -18 1
-38 31 -68 -42 -130 -110 -94 -14 8 -25 7 -41 -5 -32 -21 -57 -19 -68 7 -6 16
-9 18 -9 7 -1 -25 -40 -69 -60 -69 -10 0 -30 9 -45 21 -14 11 -26 16 -26 10 0
-5 5 -13 10 -16 36 -22 -30 -71 -81 -60 -33 7 -59 39 -59 72 0 16 12 29 40 45
52 30 52 41 0 16 l-39 -20 -31 22 c-23 17 -30 29 -30 56 0 33 22 66 50 76 10
3 10 9 1 25 -39 73 31 163 116 150 18 -3 33 -2 33 2 0 4 9 17 20 29 30 32 84
30 106 -3z m110 -419 c-10 -50 -25 -54 -59 -16 l-30 34 31 8 c17 5 34 13 38
19 13 21 27 -9 20 -45z"/>
<path d="M321 364 c-22 -28 -28 -69 -11 -79 6 -4 8 5 4 22 -11 58 63 96 105
54 16 -16 20 -17 25 -5 13 34 86 5 86 -34 0 -25 -28 -62 -48 -63 -11 0 -12 -2
-4 -6 23 -9 57 23 60 56 3 46 -29 75 -79 68 -22 -3 -42 -1 -45 4 -3 5 -20 9
-39 9 -24 0 -39 -7 -54 -26z"/>
<path d="M3442 505 c-17 -14 -42 -25 -57 -25 -42 0 -94 -30 -112 -63 -10 -21
-14 -45 -10 -77 5 -39 2 -48 -14 -58 -33 -21 -42 -59 -23 -98 9 -19 20 -34 24
-34 5 0 15 -7 24 -15 14 -14 19 -14 56 5 22 11 40 26 40 32 0 6 -8 4 -19 -6
-25 -23 -76 -23 -101 -1 -37 34 -19 110 30 127 10 3 10 9 1 25 -39 73 31 163
116 150 18 -3 33 -2 33 4 0 5 9 18 20 29 28 28 76 26 104 -5 21 -22 24 -23 39
-8 9 9 30 16 46 16 42 0 71 -28 71 -70 0 -23 5 -33 15 -33 9 0 27 -11 40 -25
27 -26 35 -91 14 -112 -8 -8 -9 -20 -1 -43 25 -71 -41 -126 -109 -90 -14 8
-25 6 -43 -6 -29 -18 -66 -11 -67 14 0 11 -4 8 -10 -8 -26 -63 -73 -78 -108
-34 -13 16 -21 21 -21 12 0 -8 5 -19 12 -26 9 -9 7 -16 -6 -31 -42 -46 -118
-28 -135 32 -9 31 -9 31 -10 5 -1 -16 8 -37 19 -48 17 -17 31 -23 92 -34 9 -2
19 2 22 10 7 18 21 18 41 -2 9 -9 18 -14 21 -12 2 3 -2 11 -11 18 -26 21 -17
38 23 43 48 6 55 1 48 -34 -3 -18 -1 -29 6 -29 7 0 9 14 5 41 -9 68 10 92 33
42 6 -16 24 -38 40 -51 l29 -23 16 30 c8 17 15 39 15 51 0 11 5 20 10 20 6 0
11 -26 12 -57 l2 -58 3 52 c4 48 7 54 38 68 42 21 61 63 47 104 -6 17 -7 33
-3 36 15 8 19 56 9 92 -6 21 -20 41 -38 51 -18 10 -32 30 -40 55 -8 28 -20 42
-46 54 -31 15 -37 15 -68 0 -32 -15 -35 -15 -52 4 -25 27 -76 25 -112 -6z
m225 -422 c-10 -57 -24 -63 -59 -24 l-31 34 34 12 c57 21 62 19 56 -22z"/>
<path d="M104 486 c-28 -28 -34 -41 -33 -72 l1 -39 9 45 c9 47 43 85 84 93 17
4 17 4 -3 6 -15 0 -37 -12 -58 -33z"/>
<path d="M3254 509 c-29 -15 -54 -61 -53 -101 1 -31 2 -31 10 10 11 56 14 61
63 83 24 11 33 18 21 18 -11 0 -29 -5 -41 -10z"/>
<path d="M3452 365 c-23 -29 -29 -70 -12 -80 6 -4 8 5 4 22 -11 58 63 96 105
54 16 -16 20 -17 25 -5 8 20 50 17 69 -4 27 -29 21 -60 -15 -82 -22 -13 -27
-20 -15 -20 27 0 57 37 57 70 0 36 -34 61 -81 60 -19 -1 -52 2 -75 5 -37 7
-43 4 -62 -20z"/>
<path d="M4104 291 c-33 -20 -64 -75 -63 -113 0 -15 6 -6 15 24 13 43 30 62
80 95 31 20 1 14 -32 -6z"/>
<path d="M4050 123 c0 -5 11 -20 25 -33 14 -13 25 -19 25 -14 0 12 -50 59 -50
47z"/>
<path d="M2375 62 c-37 -23 -60 -50 -51 -60 4 -4 12 1 17 11 11 19 80 57 105
57 9 0 32 -17 50 -37 19 -20 34 -31 34 -24 0 7 -13 26 -29 42 -35 34 -81 38
-126 11z"/>
<path d="M5515 68 c-22 -13 -65 -56 -65 -65 0 -4 10 3 23 15 22 21 86 52 108
52 6 0 27 -16 45 -36 19 -19 34 -31 34 -26 0 6 -13 24 -29 41 -31 33 -77 41
-116 19z"/>
<path d="M2425 10 c-3 -5 1 -10 9 -10 9 0 16 5 16 10 0 6 -4 10 -9 10 -6 0
-13 -4 -16 -10z"/>
<path d="M5555 10 c-3 -5 1 -10 9 -10 9 0 16 5 16 10 0 6 -4 10 -9 10 -6 0
-13 -4 -16 -10z"/>
<path d="M2923 3 c9 -2 23 -2 30 0 6 3 -1 5 -18 5 -16 0 -22 -2 -12 -5z"/>
</g>
</svg>
